G04 #@! TF.FileFunction,Copper,L2,Bot,Signal*
%FSLAX46Y46*%
G04 Gerber Fmt 4.6, Leading zero omitted, Abs format (unit mm)*
G04 Created by KiCad (PCBNEW 4.0.2-stable) date 2016 July 30, Saturday 23:08:24*
%MOMM*%
G01*
G04 APERTURE LIST*
%ADD10C,0.100000*%
%ADD11R,2.000000X2.000000*%
%ADD12C,2.000000*%
%ADD13C,1.524000*%
%ADD14C,2.700020*%
%ADD15R,2.032000X1.727200*%
%ADD16O,2.032000X1.727200*%
%ADD17C,2.500000*%
%ADD18C,0.304800*%
%ADD19C,0.254000*%
G04 APERTURE END LIST*
D10*
D11*
X188000000Y-83000000D03*
D12*
X185460000Y-83000000D03*
D13*
X187540000Y-65000000D03*
X185000000Y-65000000D03*
X185000000Y-63001020D03*
X187540000Y-63001020D03*
D14*
X192269480Y-60301000D03*
X180270520Y-60301000D03*
D15*
X192000000Y-69000000D03*
D16*
X192000000Y-71540000D03*
X192000000Y-74080000D03*
X192000000Y-76620000D03*
X192000000Y-79160000D03*
D17*
X62200000Y-107100000D03*
X62200000Y-56900000D03*
X53800000Y-58100000D03*
D12*
X56250000Y-52750000D03*
X59750000Y-111250000D03*
X56250000Y-111250000D03*
D17*
X53800000Y-105900000D03*
X78200000Y-107100000D03*
X78200000Y-56900000D03*
X69800000Y-58100000D03*
D12*
X72250000Y-52750000D03*
X75750000Y-111250000D03*
X72250000Y-111250000D03*
D17*
X69800000Y-105900000D03*
X94200000Y-107100000D03*
X94200000Y-56900000D03*
X85800000Y-58100000D03*
D12*
X88250000Y-52750000D03*
X91750000Y-111250000D03*
X88250000Y-111250000D03*
D17*
X85800000Y-105900000D03*
X110200000Y-107100000D03*
X110200000Y-56900000D03*
X101800000Y-58100000D03*
D12*
X104250000Y-52750000D03*
X107750000Y-111250000D03*
X104250000Y-111250000D03*
D17*
X101800000Y-105900000D03*
X126200000Y-107100000D03*
X126200000Y-56900000D03*
X117800000Y-58100000D03*
D12*
X120250000Y-52750000D03*
X123750000Y-111250000D03*
X120250000Y-111250000D03*
D17*
X117800000Y-105900000D03*
X142200000Y-107100000D03*
X142200000Y-56900000D03*
X133800000Y-58100000D03*
D12*
X136250000Y-52750000D03*
X139750000Y-111250000D03*
X136250000Y-111250000D03*
D17*
X133800000Y-105900000D03*
X158200000Y-107100000D03*
X158200000Y-56900000D03*
X149800000Y-58100000D03*
D12*
X152250000Y-52750000D03*
X155750000Y-111250000D03*
X152250000Y-111250000D03*
D17*
X149800000Y-105900000D03*
X174200000Y-107100000D03*
X174200000Y-56900000D03*
X165800000Y-58100000D03*
D12*
X168250000Y-52750000D03*
X171750000Y-111250000D03*
X168250000Y-111250000D03*
D17*
X165800000Y-105900000D03*
D18*
X186000000Y-71500000D03*
X186500000Y-96500000D03*
X186500000Y-96500000D03*
X183750000Y-67000000D03*
X184000000Y-71500000D03*
X188000000Y-86550000D03*
X188000000Y-89100000D03*
X188000000Y-87825000D03*
X183000000Y-71000000D03*
X186000000Y-70500000D03*
X180000000Y-90500000D03*
X177500000Y-91000000D03*
X177500000Y-92000000D03*
X182500000Y-92000000D03*
X183000000Y-92500000D03*
X178000000Y-92500000D03*
X182500000Y-93000000D03*
X178500000Y-93000000D03*
X185000000Y-91500000D03*
X179000000Y-93500000D03*
D19*
X184000000Y-71500000D02*
X186000000Y-71500000D01*
X188000000Y-89100000D02*
X188000000Y-95000000D01*
X186500000Y-96500000D02*
X188000000Y-95000000D01*
X188000000Y-86550000D02*
X188000000Y-88000000D01*
X188000000Y-88000000D02*
X188000000Y-89100000D01*
X183000000Y-71000000D02*
X183500000Y-70500000D01*
X183500000Y-70500000D02*
X186000000Y-70500000D01*
X180000000Y-90500000D02*
X179500000Y-91000000D01*
X179500000Y-91000000D02*
X177500000Y-91000000D01*
X182500000Y-92000000D02*
X177500000Y-92000000D01*
X183000000Y-92500000D02*
X178000000Y-92500000D01*
X182500000Y-93000000D02*
X178500000Y-93000000D01*
X183000000Y-93500000D02*
X179000000Y-93500000D01*
X185000000Y-91500000D02*
X183000000Y-93500000D01*
G36*
X194579250Y-50601565D02*
X195070316Y-50929684D01*
X195398434Y-51420747D01*
X195523000Y-52046982D01*
X195523000Y-111953018D01*
X195398434Y-112579253D01*
X195070316Y-113070316D01*
X194579250Y-113398435D01*
X193953018Y-113523000D01*
X52046982Y-113523000D01*
X51420747Y-113398434D01*
X50929684Y-113070316D01*
X50601565Y-112579250D01*
X50477000Y-111953018D01*
X50477000Y-111532603D01*
X58322752Y-111532603D01*
X58539543Y-112057275D01*
X58940614Y-112459047D01*
X59464907Y-112676752D01*
X60032603Y-112677248D01*
X60557275Y-112460457D01*
X60959047Y-112059386D01*
X61176752Y-111535093D01*
X61176754Y-111532603D01*
X74322752Y-111532603D01*
X74539543Y-112057275D01*
X74940614Y-112459047D01*
X75464907Y-112676752D01*
X76032603Y-112677248D01*
X76557275Y-112460457D01*
X76959047Y-112059386D01*
X77176752Y-111535093D01*
X77176754Y-111532603D01*
X90322752Y-111532603D01*
X90539543Y-112057275D01*
X90940614Y-112459047D01*
X91464907Y-112676752D01*
X92032603Y-112677248D01*
X92557275Y-112460457D01*
X92959047Y-112059386D01*
X93176752Y-111535093D01*
X93176754Y-111532603D01*
X106322752Y-111532603D01*
X106539543Y-112057275D01*
X106940614Y-112459047D01*
X107464907Y-112676752D01*
X108032603Y-112677248D01*
X108557275Y-112460457D01*
X108959047Y-112059386D01*
X109176752Y-111535093D01*
X109176754Y-111532603D01*
X122322752Y-111532603D01*
X122539543Y-112057275D01*
X122940614Y-112459047D01*
X123464907Y-112676752D01*
X124032603Y-112677248D01*
X124557275Y-112460457D01*
X124959047Y-112059386D01*
X125176752Y-111535093D01*
X125176754Y-111532603D01*
X138322752Y-111532603D01*
X138539543Y-112057275D01*
X138940614Y-112459047D01*
X139464907Y-112676752D01*
X140032603Y-112677248D01*
X140557275Y-112460457D01*
X140959047Y-112059386D01*
X141176752Y-111535093D01*
X141176754Y-111532603D01*
X154322752Y-111532603D01*
X154539543Y-112057275D01*
X154940614Y-112459047D01*
X155464907Y-112676752D01*
X156032603Y-112677248D01*
X156557275Y-112460457D01*
X156959047Y-112059386D01*
X157176752Y-111535093D01*
X157176754Y-111532603D01*
X170322752Y-111532603D01*
X170539543Y-112057275D01*
X170940614Y-112459047D01*
X171464907Y-112676752D01*
X172032603Y-112677248D01*
X172557275Y-112460457D01*
X172959047Y-112059386D01*
X173176752Y-111535093D01*
X173177248Y-110967397D01*
X172960457Y-110442725D01*
X172559386Y-110040953D01*
X172035093Y-109823248D01*
X171467397Y-109822752D01*
X170942725Y-110039543D01*
X170540953Y-110440614D01*
X170323248Y-110964907D01*
X170322752Y-111532603D01*
X157176754Y-111532603D01*
X157177248Y-110967397D01*
X156960457Y-110442725D01*
X156559386Y-110040953D01*
X156035093Y-109823248D01*
X155467397Y-109822752D01*
X154942725Y-110039543D01*
X154540953Y-110440614D01*
X154323248Y-110964907D01*
X154322752Y-111532603D01*
X141176754Y-111532603D01*
X141177248Y-110967397D01*
X140960457Y-110442725D01*
X140559386Y-110040953D01*
X140035093Y-109823248D01*
X139467397Y-109822752D01*
X138942725Y-110039543D01*
X138540953Y-110440614D01*
X138323248Y-110964907D01*
X138322752Y-111532603D01*
X125176754Y-111532603D01*
X125177248Y-110967397D01*
X124960457Y-110442725D01*
X124559386Y-110040953D01*
X124035093Y-109823248D01*
X123467397Y-109822752D01*
X122942725Y-110039543D01*
X122540953Y-110440614D01*
X122323248Y-110964907D01*
X122322752Y-111532603D01*
X109176754Y-111532603D01*
X109177248Y-110967397D01*
X108960457Y-110442725D01*
X108559386Y-110040953D01*
X108035093Y-109823248D01*
X107467397Y-109822752D01*
X106942725Y-110039543D01*
X106540953Y-110440614D01*
X106323248Y-110964907D01*
X106322752Y-111532603D01*
X93176754Y-111532603D01*
X93177248Y-110967397D01*
X92960457Y-110442725D01*
X92559386Y-110040953D01*
X92035093Y-109823248D01*
X91467397Y-109822752D01*
X90942725Y-110039543D01*
X90540953Y-110440614D01*
X90323248Y-110964907D01*
X90322752Y-111532603D01*
X77176754Y-111532603D01*
X77177248Y-110967397D01*
X76960457Y-110442725D01*
X76559386Y-110040953D01*
X76035093Y-109823248D01*
X75467397Y-109822752D01*
X74942725Y-110039543D01*
X74540953Y-110440614D01*
X74323248Y-110964907D01*
X74322752Y-111532603D01*
X61176754Y-111532603D01*
X61177248Y-110967397D01*
X60960457Y-110442725D01*
X60559386Y-110040953D01*
X60035093Y-109823248D01*
X59467397Y-109822752D01*
X58942725Y-110039543D01*
X58540953Y-110440614D01*
X58323248Y-110964907D01*
X58322752Y-111532603D01*
X50477000Y-111532603D01*
X50477000Y-106232112D01*
X52122710Y-106232112D01*
X52377480Y-106848703D01*
X52848816Y-107320862D01*
X53464961Y-107576708D01*
X54132112Y-107577290D01*
X54483469Y-107432112D01*
X60522710Y-107432112D01*
X60777480Y-108048703D01*
X61248816Y-108520862D01*
X61864961Y-108776708D01*
X62532112Y-108777290D01*
X63148703Y-108522520D01*
X63620862Y-108051184D01*
X63876708Y-107435039D01*
X63877290Y-106767888D01*
X63655913Y-106232112D01*
X68122710Y-106232112D01*
X68377480Y-106848703D01*
X68848816Y-107320862D01*
X69464961Y-107576708D01*
X70132112Y-107577290D01*
X70483469Y-107432112D01*
X76522710Y-107432112D01*
X76777480Y-108048703D01*
X77248816Y-108520862D01*
X77864961Y-108776708D01*
X78532112Y-108777290D01*
X79148703Y-108522520D01*
X79620862Y-108051184D01*
X79876708Y-107435039D01*
X79877290Y-106767888D01*
X79655913Y-106232112D01*
X84122710Y-106232112D01*
X84377480Y-106848703D01*
X84848816Y-107320862D01*
X85464961Y-107576708D01*
X86132112Y-107577290D01*
X86483469Y-107432112D01*
X92522710Y-107432112D01*
X92777480Y-108048703D01*
X93248816Y-108520862D01*
X93864961Y-108776708D01*
X94532112Y-108777290D01*
X95148703Y-108522520D01*
X95620862Y-108051184D01*
X95876708Y-107435039D01*
X95877290Y-106767888D01*
X95655913Y-106232112D01*
X100122710Y-106232112D01*
X100377480Y-106848703D01*
X100848816Y-107320862D01*
X101464961Y-107576708D01*
X102132112Y-107577290D01*
X102483469Y-107432112D01*
X108522710Y-107432112D01*
X108777480Y-108048703D01*
X109248816Y-108520862D01*
X109864961Y-108776708D01*
X110532112Y-108777290D01*
X111148703Y-108522520D01*
X111620862Y-108051184D01*
X111876708Y-107435039D01*
X111877290Y-106767888D01*
X111655913Y-106232112D01*
X116122710Y-106232112D01*
X116377480Y-106848703D01*
X116848816Y-107320862D01*
X117464961Y-107576708D01*
X118132112Y-107577290D01*
X118483469Y-107432112D01*
X124522710Y-107432112D01*
X124777480Y-108048703D01*
X125248816Y-108520862D01*
X125864961Y-108776708D01*
X126532112Y-108777290D01*
X127148703Y-108522520D01*
X127620862Y-108051184D01*
X127876708Y-107435039D01*
X127877290Y-106767888D01*
X127655913Y-106232112D01*
X132122710Y-106232112D01*
X132377480Y-106848703D01*
X132848816Y-107320862D01*
X133464961Y-107576708D01*
X134132112Y-107577290D01*
X134483469Y-107432112D01*
X140522710Y-107432112D01*
X140777480Y-108048703D01*
X141248816Y-108520862D01*
X141864961Y-108776708D01*
X142532112Y-108777290D01*
X143148703Y-108522520D01*
X143620862Y-108051184D01*
X143876708Y-107435039D01*
X143877290Y-106767888D01*
X143655913Y-106232112D01*
X148122710Y-106232112D01*
X148377480Y-106848703D01*
X148848816Y-107320862D01*
X149464961Y-107576708D01*
X150132112Y-107577290D01*
X150483469Y-107432112D01*
X156522710Y-107432112D01*
X156777480Y-108048703D01*
X157248816Y-108520862D01*
X157864961Y-108776708D01*
X158532112Y-108777290D01*
X159148703Y-108522520D01*
X159620862Y-108051184D01*
X159876708Y-107435039D01*
X159877290Y-106767888D01*
X159655913Y-106232112D01*
X164122710Y-106232112D01*
X164377480Y-106848703D01*
X164848816Y-107320862D01*
X165464961Y-107576708D01*
X166132112Y-107577290D01*
X166483469Y-107432112D01*
X172522710Y-107432112D01*
X172777480Y-108048703D01*
X173248816Y-108520862D01*
X173864961Y-108776708D01*
X174532112Y-108777290D01*
X175148703Y-108522520D01*
X175620862Y-108051184D01*
X175876708Y-107435039D01*
X175877290Y-106767888D01*
X175622520Y-106151297D01*
X175151184Y-105679138D01*
X174535039Y-105423292D01*
X173867888Y-105422710D01*
X173251297Y-105677480D01*
X172779138Y-106148816D01*
X172523292Y-106764961D01*
X172522710Y-107432112D01*
X166483469Y-107432112D01*
X166748703Y-107322520D01*
X167220862Y-106851184D01*
X167476708Y-106235039D01*
X167477290Y-105567888D01*
X167222520Y-104951297D01*
X166751184Y-104479138D01*
X166135039Y-104223292D01*
X165467888Y-104222710D01*
X164851297Y-104477480D01*
X164379138Y-104948816D01*
X164123292Y-105564961D01*
X164122710Y-106232112D01*
X159655913Y-106232112D01*
X159622520Y-106151297D01*
X159151184Y-105679138D01*
X158535039Y-105423292D01*
X157867888Y-105422710D01*
X157251297Y-105677480D01*
X156779138Y-106148816D01*
X156523292Y-106764961D01*
X156522710Y-107432112D01*
X150483469Y-107432112D01*
X150748703Y-107322520D01*
X151220862Y-106851184D01*
X151476708Y-106235039D01*
X151477290Y-105567888D01*
X151222520Y-104951297D01*
X150751184Y-104479138D01*
X150135039Y-104223292D01*
X149467888Y-104222710D01*
X148851297Y-104477480D01*
X148379138Y-104948816D01*
X148123292Y-105564961D01*
X148122710Y-106232112D01*
X143655913Y-106232112D01*
X143622520Y-106151297D01*
X143151184Y-105679138D01*
X142535039Y-105423292D01*
X141867888Y-105422710D01*
X141251297Y-105677480D01*
X140779138Y-106148816D01*
X140523292Y-106764961D01*
X140522710Y-107432112D01*
X134483469Y-107432112D01*
X134748703Y-107322520D01*
X135220862Y-106851184D01*
X135476708Y-106235039D01*
X135477290Y-105567888D01*
X135222520Y-104951297D01*
X134751184Y-104479138D01*
X134135039Y-104223292D01*
X133467888Y-104222710D01*
X132851297Y-104477480D01*
X132379138Y-104948816D01*
X132123292Y-105564961D01*
X132122710Y-106232112D01*
X127655913Y-106232112D01*
X127622520Y-106151297D01*
X127151184Y-105679138D01*
X126535039Y-105423292D01*
X125867888Y-105422710D01*
X125251297Y-105677480D01*
X124779138Y-106148816D01*
X124523292Y-106764961D01*
X124522710Y-107432112D01*
X118483469Y-107432112D01*
X118748703Y-107322520D01*
X119220862Y-106851184D01*
X119476708Y-106235039D01*
X119477290Y-105567888D01*
X119222520Y-104951297D01*
X118751184Y-104479138D01*
X118135039Y-104223292D01*
X117467888Y-104222710D01*
X116851297Y-104477480D01*
X116379138Y-104948816D01*
X116123292Y-105564961D01*
X116122710Y-106232112D01*
X111655913Y-106232112D01*
X111622520Y-106151297D01*
X111151184Y-105679138D01*
X110535039Y-105423292D01*
X109867888Y-105422710D01*
X109251297Y-105677480D01*
X108779138Y-106148816D01*
X108523292Y-106764961D01*
X108522710Y-107432112D01*
X102483469Y-107432112D01*
X102748703Y-107322520D01*
X103220862Y-106851184D01*
X103476708Y-106235039D01*
X103477290Y-105567888D01*
X103222520Y-104951297D01*
X102751184Y-104479138D01*
X102135039Y-104223292D01*
X101467888Y-104222710D01*
X100851297Y-104477480D01*
X100379138Y-104948816D01*
X100123292Y-105564961D01*
X100122710Y-106232112D01*
X95655913Y-106232112D01*
X95622520Y-106151297D01*
X95151184Y-105679138D01*
X94535039Y-105423292D01*
X93867888Y-105422710D01*
X93251297Y-105677480D01*
X92779138Y-106148816D01*
X92523292Y-106764961D01*
X92522710Y-107432112D01*
X86483469Y-107432112D01*
X86748703Y-107322520D01*
X87220862Y-106851184D01*
X87476708Y-106235039D01*
X87477290Y-105567888D01*
X87222520Y-104951297D01*
X86751184Y-104479138D01*
X86135039Y-104223292D01*
X85467888Y-104222710D01*
X84851297Y-104477480D01*
X84379138Y-104948816D01*
X84123292Y-105564961D01*
X84122710Y-106232112D01*
X79655913Y-106232112D01*
X79622520Y-106151297D01*
X79151184Y-105679138D01*
X78535039Y-105423292D01*
X77867888Y-105422710D01*
X77251297Y-105677480D01*
X76779138Y-106148816D01*
X76523292Y-106764961D01*
X76522710Y-107432112D01*
X70483469Y-107432112D01*
X70748703Y-107322520D01*
X71220862Y-106851184D01*
X71476708Y-106235039D01*
X71477290Y-105567888D01*
X71222520Y-104951297D01*
X70751184Y-104479138D01*
X70135039Y-104223292D01*
X69467888Y-104222710D01*
X68851297Y-104477480D01*
X68379138Y-104948816D01*
X68123292Y-105564961D01*
X68122710Y-106232112D01*
X63655913Y-106232112D01*
X63622520Y-106151297D01*
X63151184Y-105679138D01*
X62535039Y-105423292D01*
X61867888Y-105422710D01*
X61251297Y-105677480D01*
X60779138Y-106148816D01*
X60523292Y-106764961D01*
X60522710Y-107432112D01*
X54483469Y-107432112D01*
X54748703Y-107322520D01*
X55220862Y-106851184D01*
X55476708Y-106235039D01*
X55477290Y-105567888D01*
X55222520Y-104951297D01*
X54751184Y-104479138D01*
X54135039Y-104223292D01*
X53467888Y-104222710D01*
X52851297Y-104477480D01*
X52379138Y-104948816D01*
X52123292Y-105564961D01*
X52122710Y-106232112D01*
X50477000Y-106232112D01*
X50477000Y-91114744D01*
X176920500Y-91114744D01*
X177008522Y-91327775D01*
X177171368Y-91490905D01*
X177193061Y-91499913D01*
X177172225Y-91508522D01*
X177009095Y-91671368D01*
X176920701Y-91884245D01*
X176920500Y-92114744D01*
X177008522Y-92327775D01*
X177171368Y-92490905D01*
X177384245Y-92579299D01*
X177420531Y-92579331D01*
X177420500Y-92614744D01*
X177508522Y-92827775D01*
X177671368Y-92990905D01*
X177884245Y-93079299D01*
X177920531Y-93079331D01*
X177920500Y-93114744D01*
X178008522Y-93327775D01*
X178171368Y-93490905D01*
X178384245Y-93579299D01*
X178420531Y-93579331D01*
X178420500Y-93614744D01*
X178508522Y-93827775D01*
X178671368Y-93990905D01*
X178884245Y-94079299D01*
X179114744Y-94079500D01*
X179176459Y-94054000D01*
X183000000Y-94054000D01*
X183212007Y-94011829D01*
X183391737Y-93891737D01*
X185266803Y-92016671D01*
X185327775Y-91991478D01*
X185490905Y-91828632D01*
X185579299Y-91615755D01*
X185579500Y-91385256D01*
X185491478Y-91172225D01*
X185328632Y-91009095D01*
X185115755Y-90920701D01*
X184885256Y-90920500D01*
X184672225Y-91008522D01*
X184509095Y-91171368D01*
X184483487Y-91233039D01*
X183506922Y-92209604D01*
X183491478Y-92172225D01*
X183328632Y-92009095D01*
X183115755Y-91920701D01*
X183079469Y-91920669D01*
X183079500Y-91885256D01*
X182991478Y-91672225D01*
X182828632Y-91509095D01*
X182615755Y-91420701D01*
X182385256Y-91420500D01*
X182323541Y-91446000D01*
X179810527Y-91446000D01*
X179891737Y-91391737D01*
X180266803Y-91016671D01*
X180327775Y-90991478D01*
X180490905Y-90828632D01*
X180579299Y-90615755D01*
X180579500Y-90385256D01*
X180491478Y-90172225D01*
X180328632Y-90009095D01*
X180115755Y-89920701D01*
X179885256Y-89920500D01*
X179672225Y-90008522D01*
X179509095Y-90171368D01*
X179483487Y-90233039D01*
X179270526Y-90446000D01*
X177676682Y-90446000D01*
X177615755Y-90420701D01*
X177385256Y-90420500D01*
X177172225Y-90508522D01*
X177009095Y-90671368D01*
X176920701Y-90884245D01*
X176920500Y-91114744D01*
X50477000Y-91114744D01*
X50477000Y-83282603D01*
X184032752Y-83282603D01*
X184249543Y-83807275D01*
X184650614Y-84209047D01*
X185174907Y-84426752D01*
X185742603Y-84427248D01*
X186267275Y-84210457D01*
X186669047Y-83809386D01*
X186886752Y-83285093D01*
X186887248Y-82717397D01*
X186670457Y-82192725D01*
X186269386Y-81790953D01*
X185745093Y-81573248D01*
X185177397Y-81572752D01*
X184652725Y-81789543D01*
X184250953Y-82190614D01*
X184033248Y-82714907D01*
X184032752Y-83282603D01*
X50477000Y-83282603D01*
X50477000Y-76620000D01*
X190528730Y-76620000D01*
X190626971Y-77113891D01*
X190906738Y-77532592D01*
X191325439Y-77812359D01*
X191715767Y-77890000D01*
X191325439Y-77967641D01*
X190906738Y-78247408D01*
X190626971Y-78666109D01*
X190528730Y-79160000D01*
X190626971Y-79653891D01*
X190906738Y-80072592D01*
X191325439Y-80352359D01*
X191819330Y-80450600D01*
X192180670Y-80450600D01*
X192674561Y-80352359D01*
X193093262Y-80072592D01*
X193373029Y-79653891D01*
X193471270Y-79160000D01*
X193373029Y-78666109D01*
X193093262Y-78247408D01*
X192674561Y-77967641D01*
X192284233Y-77890000D01*
X192674561Y-77812359D01*
X193093262Y-77532592D01*
X193373029Y-77113891D01*
X193471270Y-76620000D01*
X193373029Y-76126109D01*
X193093262Y-75707408D01*
X192674561Y-75427641D01*
X192180670Y-75329400D01*
X191819330Y-75329400D01*
X191325439Y-75427641D01*
X190906738Y-75707408D01*
X190626971Y-76126109D01*
X190528730Y-76620000D01*
X50477000Y-76620000D01*
X50477000Y-71114744D01*
X182420500Y-71114744D01*
X182508522Y-71327775D01*
X182671368Y-71490905D01*
X182884245Y-71579299D01*
X183114744Y-71579500D01*
X183327775Y-71491478D01*
X183373000Y-71446332D01*
X183373000Y-72000000D01*
X183383006Y-72049410D01*
X183411447Y-72091035D01*
X183453841Y-72118315D01*
X183500000Y-72127000D01*
X186500000Y-72127000D01*
X186549410Y-72116994D01*
X186591035Y-72088553D01*
X186618315Y-72046159D01*
X186627000Y-72000000D01*
X186627000Y-71540000D01*
X190528730Y-71540000D01*
X190626971Y-72033891D01*
X190906738Y-72452592D01*
X191325439Y-72732359D01*
X191819330Y-72830600D01*
X192180670Y-72830600D01*
X192674561Y-72732359D01*
X193093262Y-72452592D01*
X193373029Y-72033891D01*
X193471270Y-71540000D01*
X193373029Y-71046109D01*
X193093262Y-70627408D01*
X192674561Y-70347641D01*
X192429850Y-70298965D01*
X193016000Y-70298965D01*
X193174237Y-70269191D01*
X193319567Y-70175673D01*
X193417064Y-70032981D01*
X193451365Y-69863600D01*
X193451365Y-68136400D01*
X193421591Y-67978163D01*
X193328073Y-67832833D01*
X193185381Y-67735336D01*
X193016000Y-67701035D01*
X190984000Y-67701035D01*
X190825763Y-67730809D01*
X190680433Y-67824327D01*
X190582936Y-67967019D01*
X190548635Y-68136400D01*
X190548635Y-69863600D01*
X190578409Y-70021837D01*
X190671927Y-70167167D01*
X190814619Y-70264664D01*
X190984000Y-70298965D01*
X191570150Y-70298965D01*
X191325439Y-70347641D01*
X190906738Y-70627408D01*
X190626971Y-71046109D01*
X190528730Y-71540000D01*
X186627000Y-71540000D01*
X186627000Y-71000000D01*
X186616994Y-70950590D01*
X186588553Y-70908965D01*
X186546159Y-70881685D01*
X186500000Y-70873000D01*
X186446460Y-70873000D01*
X186490905Y-70828632D01*
X186579299Y-70615755D01*
X186579500Y-70385256D01*
X186491478Y-70172225D01*
X186328632Y-70009095D01*
X186115755Y-69920701D01*
X185885256Y-69920500D01*
X185823541Y-69946000D01*
X183500000Y-69946000D01*
X183287993Y-69988171D01*
X183108263Y-70108263D01*
X182733197Y-70483329D01*
X182672225Y-70508522D01*
X182509095Y-70671368D01*
X182420701Y-70884245D01*
X182420500Y-71114744D01*
X50477000Y-71114744D01*
X50477000Y-65235469D01*
X183810794Y-65235469D01*
X183991427Y-65672635D01*
X184325606Y-66007397D01*
X184762456Y-66188793D01*
X185235469Y-66189206D01*
X185672635Y-66008573D01*
X186007397Y-65674394D01*
X186188793Y-65237544D01*
X186189206Y-64764531D01*
X186008573Y-64327365D01*
X185674394Y-63992603D01*
X185237544Y-63811207D01*
X184764531Y-63810794D01*
X184327365Y-63991427D01*
X183992603Y-64325606D01*
X183811207Y-64762456D01*
X183810794Y-65235469D01*
X50477000Y-65235469D01*
X50477000Y-63236489D01*
X186350794Y-63236489D01*
X186531427Y-63673655D01*
X186857989Y-64000787D01*
X186532603Y-64325606D01*
X186351207Y-64762456D01*
X186350794Y-65235469D01*
X186531427Y-65672635D01*
X186865606Y-66007397D01*
X187302456Y-66188793D01*
X187775469Y-66189206D01*
X188212635Y-66008573D01*
X188547397Y-65674394D01*
X188728793Y-65237544D01*
X188729206Y-64764531D01*
X188548573Y-64327365D01*
X188222011Y-64000233D01*
X188547397Y-63675414D01*
X188728793Y-63238564D01*
X188729206Y-62765551D01*
X188548573Y-62328385D01*
X188214394Y-61993623D01*
X187777544Y-61812227D01*
X187304531Y-61811814D01*
X186867365Y-61992447D01*
X186532603Y-62326626D01*
X186351207Y-62763476D01*
X186350794Y-63236489D01*
X50477000Y-63236489D01*
X50477000Y-60652918D01*
X178493202Y-60652918D01*
X178763166Y-61306280D01*
X179262610Y-61806598D01*
X179915500Y-62077701D01*
X180622438Y-62078318D01*
X181275800Y-61808354D01*
X181776118Y-61308910D01*
X182047221Y-60656020D01*
X182047223Y-60652918D01*
X190492162Y-60652918D01*
X190762126Y-61306280D01*
X191261570Y-61806598D01*
X191914460Y-62077701D01*
X192621398Y-62078318D01*
X193274760Y-61808354D01*
X193775078Y-61308910D01*
X194046181Y-60656020D01*
X194046798Y-59949082D01*
X193776834Y-59295720D01*
X193277390Y-58795402D01*
X192624500Y-58524299D01*
X191917562Y-58523682D01*
X191264200Y-58793646D01*
X190763882Y-59293090D01*
X190492779Y-59945980D01*
X190492162Y-60652918D01*
X182047223Y-60652918D01*
X182047838Y-59949082D01*
X181777874Y-59295720D01*
X181278430Y-58795402D01*
X180625540Y-58524299D01*
X179918602Y-58523682D01*
X179265240Y-58793646D01*
X178764922Y-59293090D01*
X178493819Y-59945980D01*
X178493202Y-60652918D01*
X50477000Y-60652918D01*
X50477000Y-58432112D01*
X52122710Y-58432112D01*
X52377480Y-59048703D01*
X52848816Y-59520862D01*
X53464961Y-59776708D01*
X54132112Y-59777290D01*
X54748703Y-59522520D01*
X55220862Y-59051184D01*
X55476708Y-58435039D01*
X55477290Y-57767888D01*
X55255913Y-57232112D01*
X60522710Y-57232112D01*
X60777480Y-57848703D01*
X61248816Y-58320862D01*
X61864961Y-58576708D01*
X62532112Y-58577290D01*
X62883469Y-58432112D01*
X68122710Y-58432112D01*
X68377480Y-59048703D01*
X68848816Y-59520862D01*
X69464961Y-59776708D01*
X70132112Y-59777290D01*
X70748703Y-59522520D01*
X71220862Y-59051184D01*
X71476708Y-58435039D01*
X71477290Y-57767888D01*
X71255913Y-57232112D01*
X76522710Y-57232112D01*
X76777480Y-57848703D01*
X77248816Y-58320862D01*
X77864961Y-58576708D01*
X78532112Y-58577290D01*
X78883469Y-58432112D01*
X84122710Y-58432112D01*
X84377480Y-59048703D01*
X84848816Y-59520862D01*
X85464961Y-59776708D01*
X86132112Y-59777290D01*
X86748703Y-59522520D01*
X87220862Y-59051184D01*
X87476708Y-58435039D01*
X87477290Y-57767888D01*
X87255913Y-57232112D01*
X92522710Y-57232112D01*
X92777480Y-57848703D01*
X93248816Y-58320862D01*
X93864961Y-58576708D01*
X94532112Y-58577290D01*
X94883469Y-58432112D01*
X100122710Y-58432112D01*
X100377480Y-59048703D01*
X100848816Y-59520862D01*
X101464961Y-59776708D01*
X102132112Y-59777290D01*
X102748703Y-59522520D01*
X103220862Y-59051184D01*
X103476708Y-58435039D01*
X103477290Y-57767888D01*
X103255913Y-57232112D01*
X108522710Y-57232112D01*
X108777480Y-57848703D01*
X109248816Y-58320862D01*
X109864961Y-58576708D01*
X110532112Y-58577290D01*
X110883469Y-58432112D01*
X116122710Y-58432112D01*
X116377480Y-59048703D01*
X116848816Y-59520862D01*
X117464961Y-59776708D01*
X118132112Y-59777290D01*
X118748703Y-59522520D01*
X119220862Y-59051184D01*
X119476708Y-58435039D01*
X119477290Y-57767888D01*
X119255913Y-57232112D01*
X124522710Y-57232112D01*
X124777480Y-57848703D01*
X125248816Y-58320862D01*
X125864961Y-58576708D01*
X126532112Y-58577290D01*
X126883469Y-58432112D01*
X132122710Y-58432112D01*
X132377480Y-59048703D01*
X132848816Y-59520862D01*
X133464961Y-59776708D01*
X134132112Y-59777290D01*
X134748703Y-59522520D01*
X135220862Y-59051184D01*
X135476708Y-58435039D01*
X135477290Y-57767888D01*
X135255913Y-57232112D01*
X140522710Y-57232112D01*
X140777480Y-57848703D01*
X141248816Y-58320862D01*
X141864961Y-58576708D01*
X142532112Y-58577290D01*
X142883469Y-58432112D01*
X148122710Y-58432112D01*
X148377480Y-59048703D01*
X148848816Y-59520862D01*
X149464961Y-59776708D01*
X150132112Y-59777290D01*
X150748703Y-59522520D01*
X151220862Y-59051184D01*
X151476708Y-58435039D01*
X151477290Y-57767888D01*
X151255913Y-57232112D01*
X156522710Y-57232112D01*
X156777480Y-57848703D01*
X157248816Y-58320862D01*
X157864961Y-58576708D01*
X158532112Y-58577290D01*
X158883469Y-58432112D01*
X164122710Y-58432112D01*
X164377480Y-59048703D01*
X164848816Y-59520862D01*
X165464961Y-59776708D01*
X166132112Y-59777290D01*
X166748703Y-59522520D01*
X167220862Y-59051184D01*
X167476708Y-58435039D01*
X167477290Y-57767888D01*
X167255913Y-57232112D01*
X172522710Y-57232112D01*
X172777480Y-57848703D01*
X173248816Y-58320862D01*
X173864961Y-58576708D01*
X174532112Y-58577290D01*
X175148703Y-58322520D01*
X175620862Y-57851184D01*
X175876708Y-57235039D01*
X175877290Y-56567888D01*
X175622520Y-55951297D01*
X175151184Y-55479138D01*
X174535039Y-55223292D01*
X173867888Y-55222710D01*
X173251297Y-55477480D01*
X172779138Y-55948816D01*
X172523292Y-56564961D01*
X172522710Y-57232112D01*
X167255913Y-57232112D01*
X167222520Y-57151297D01*
X166751184Y-56679138D01*
X166135039Y-56423292D01*
X165467888Y-56422710D01*
X164851297Y-56677480D01*
X164379138Y-57148816D01*
X164123292Y-57764961D01*
X164122710Y-58432112D01*
X158883469Y-58432112D01*
X159148703Y-58322520D01*
X159620862Y-57851184D01*
X159876708Y-57235039D01*
X159877290Y-56567888D01*
X159622520Y-55951297D01*
X159151184Y-55479138D01*
X158535039Y-55223292D01*
X157867888Y-55222710D01*
X157251297Y-55477480D01*
X156779138Y-55948816D01*
X156523292Y-56564961D01*
X156522710Y-57232112D01*
X151255913Y-57232112D01*
X151222520Y-57151297D01*
X150751184Y-56679138D01*
X150135039Y-56423292D01*
X149467888Y-56422710D01*
X148851297Y-56677480D01*
X148379138Y-57148816D01*
X148123292Y-57764961D01*
X148122710Y-58432112D01*
X142883469Y-58432112D01*
X143148703Y-58322520D01*
X143620862Y-57851184D01*
X143876708Y-57235039D01*
X143877290Y-56567888D01*
X143622520Y-55951297D01*
X143151184Y-55479138D01*
X142535039Y-55223292D01*
X141867888Y-55222710D01*
X141251297Y-55477480D01*
X140779138Y-55948816D01*
X140523292Y-56564961D01*
X140522710Y-57232112D01*
X135255913Y-57232112D01*
X135222520Y-57151297D01*
X134751184Y-56679138D01*
X134135039Y-56423292D01*
X133467888Y-56422710D01*
X132851297Y-56677480D01*
X132379138Y-57148816D01*
X132123292Y-57764961D01*
X132122710Y-58432112D01*
X126883469Y-58432112D01*
X127148703Y-58322520D01*
X127620862Y-57851184D01*
X127876708Y-57235039D01*
X127877290Y-56567888D01*
X127622520Y-55951297D01*
X127151184Y-55479138D01*
X126535039Y-55223292D01*
X125867888Y-55222710D01*
X125251297Y-55477480D01*
X124779138Y-55948816D01*
X124523292Y-56564961D01*
X124522710Y-57232112D01*
X119255913Y-57232112D01*
X119222520Y-57151297D01*
X118751184Y-56679138D01*
X118135039Y-56423292D01*
X117467888Y-56422710D01*
X116851297Y-56677480D01*
X116379138Y-57148816D01*
X116123292Y-57764961D01*
X116122710Y-58432112D01*
X110883469Y-58432112D01*
X111148703Y-58322520D01*
X111620862Y-57851184D01*
X111876708Y-57235039D01*
X111877290Y-56567888D01*
X111622520Y-55951297D01*
X111151184Y-55479138D01*
X110535039Y-55223292D01*
X109867888Y-55222710D01*
X109251297Y-55477480D01*
X108779138Y-55948816D01*
X108523292Y-56564961D01*
X108522710Y-57232112D01*
X103255913Y-57232112D01*
X103222520Y-57151297D01*
X102751184Y-56679138D01*
X102135039Y-56423292D01*
X101467888Y-56422710D01*
X100851297Y-56677480D01*
X100379138Y-57148816D01*
X100123292Y-57764961D01*
X100122710Y-58432112D01*
X94883469Y-58432112D01*
X95148703Y-58322520D01*
X95620862Y-57851184D01*
X95876708Y-57235039D01*
X95877290Y-56567888D01*
X95622520Y-55951297D01*
X95151184Y-55479138D01*
X94535039Y-55223292D01*
X93867888Y-55222710D01*
X93251297Y-55477480D01*
X92779138Y-55948816D01*
X92523292Y-56564961D01*
X92522710Y-57232112D01*
X87255913Y-57232112D01*
X87222520Y-57151297D01*
X86751184Y-56679138D01*
X86135039Y-56423292D01*
X85467888Y-56422710D01*
X84851297Y-56677480D01*
X84379138Y-57148816D01*
X84123292Y-57764961D01*
X84122710Y-58432112D01*
X78883469Y-58432112D01*
X79148703Y-58322520D01*
X79620862Y-57851184D01*
X79876708Y-57235039D01*
X79877290Y-56567888D01*
X79622520Y-55951297D01*
X79151184Y-55479138D01*
X78535039Y-55223292D01*
X77867888Y-55222710D01*
X77251297Y-55477480D01*
X76779138Y-55948816D01*
X76523292Y-56564961D01*
X76522710Y-57232112D01*
X71255913Y-57232112D01*
X71222520Y-57151297D01*
X70751184Y-56679138D01*
X70135039Y-56423292D01*
X69467888Y-56422710D01*
X68851297Y-56677480D01*
X68379138Y-57148816D01*
X68123292Y-57764961D01*
X68122710Y-58432112D01*
X62883469Y-58432112D01*
X63148703Y-58322520D01*
X63620862Y-57851184D01*
X63876708Y-57235039D01*
X63877290Y-56567888D01*
X63622520Y-55951297D01*
X63151184Y-55479138D01*
X62535039Y-55223292D01*
X61867888Y-55222710D01*
X61251297Y-55477480D01*
X60779138Y-55948816D01*
X60523292Y-56564961D01*
X60522710Y-57232112D01*
X55255913Y-57232112D01*
X55222520Y-57151297D01*
X54751184Y-56679138D01*
X54135039Y-56423292D01*
X53467888Y-56422710D01*
X52851297Y-56677480D01*
X52379138Y-57148816D01*
X52123292Y-57764961D01*
X52122710Y-58432112D01*
X50477000Y-58432112D01*
X50477000Y-53032603D01*
X54822752Y-53032603D01*
X55039543Y-53557275D01*
X55440614Y-53959047D01*
X55964907Y-54176752D01*
X56532603Y-54177248D01*
X57057275Y-53960457D01*
X57459047Y-53559386D01*
X57676752Y-53035093D01*
X57676754Y-53032603D01*
X70822752Y-53032603D01*
X71039543Y-53557275D01*
X71440614Y-53959047D01*
X71964907Y-54176752D01*
X72532603Y-54177248D01*
X73057275Y-53960457D01*
X73459047Y-53559386D01*
X73676752Y-53035093D01*
X73676754Y-53032603D01*
X86822752Y-53032603D01*
X87039543Y-53557275D01*
X87440614Y-53959047D01*
X87964907Y-54176752D01*
X88532603Y-54177248D01*
X89057275Y-53960457D01*
X89459047Y-53559386D01*
X89676752Y-53035093D01*
X89676754Y-53032603D01*
X102822752Y-53032603D01*
X103039543Y-53557275D01*
X103440614Y-53959047D01*
X103964907Y-54176752D01*
X104532603Y-54177248D01*
X105057275Y-53960457D01*
X105459047Y-53559386D01*
X105676752Y-53035093D01*
X105676754Y-53032603D01*
X118822752Y-53032603D01*
X119039543Y-53557275D01*
X119440614Y-53959047D01*
X119964907Y-54176752D01*
X120532603Y-54177248D01*
X121057275Y-53960457D01*
X121459047Y-53559386D01*
X121676752Y-53035093D01*
X121676754Y-53032603D01*
X134822752Y-53032603D01*
X135039543Y-53557275D01*
X135440614Y-53959047D01*
X135964907Y-54176752D01*
X136532603Y-54177248D01*
X137057275Y-53960457D01*
X137459047Y-53559386D01*
X137676752Y-53035093D01*
X137676754Y-53032603D01*
X150822752Y-53032603D01*
X151039543Y-53557275D01*
X151440614Y-53959047D01*
X151964907Y-54176752D01*
X152532603Y-54177248D01*
X153057275Y-53960457D01*
X153459047Y-53559386D01*
X153676752Y-53035093D01*
X153676754Y-53032603D01*
X166822752Y-53032603D01*
X167039543Y-53557275D01*
X167440614Y-53959047D01*
X167964907Y-54176752D01*
X168532603Y-54177248D01*
X169057275Y-53960457D01*
X169459047Y-53559386D01*
X169676752Y-53035093D01*
X169677248Y-52467397D01*
X169460457Y-51942725D01*
X169059386Y-51540953D01*
X168535093Y-51323248D01*
X167967397Y-51322752D01*
X167442725Y-51539543D01*
X167040953Y-51940614D01*
X166823248Y-52464907D01*
X166822752Y-53032603D01*
X153676754Y-53032603D01*
X153677248Y-52467397D01*
X153460457Y-51942725D01*
X153059386Y-51540953D01*
X152535093Y-51323248D01*
X151967397Y-51322752D01*
X151442725Y-51539543D01*
X151040953Y-51940614D01*
X150823248Y-52464907D01*
X150822752Y-53032603D01*
X137676754Y-53032603D01*
X137677248Y-52467397D01*
X137460457Y-51942725D01*
X137059386Y-51540953D01*
X136535093Y-51323248D01*
X135967397Y-51322752D01*
X135442725Y-51539543D01*
X135040953Y-51940614D01*
X134823248Y-52464907D01*
X134822752Y-53032603D01*
X121676754Y-53032603D01*
X121677248Y-52467397D01*
X121460457Y-51942725D01*
X121059386Y-51540953D01*
X120535093Y-51323248D01*
X119967397Y-51322752D01*
X119442725Y-51539543D01*
X119040953Y-51940614D01*
X118823248Y-52464907D01*
X118822752Y-53032603D01*
X105676754Y-53032603D01*
X105677248Y-52467397D01*
X105460457Y-51942725D01*
X105059386Y-51540953D01*
X104535093Y-51323248D01*
X103967397Y-51322752D01*
X103442725Y-51539543D01*
X103040953Y-51940614D01*
X102823248Y-52464907D01*
X102822752Y-53032603D01*
X89676754Y-53032603D01*
X89677248Y-52467397D01*
X89460457Y-51942725D01*
X89059386Y-51540953D01*
X88535093Y-51323248D01*
X87967397Y-51322752D01*
X87442725Y-51539543D01*
X87040953Y-51940614D01*
X86823248Y-52464907D01*
X86822752Y-53032603D01*
X73676754Y-53032603D01*
X73677248Y-52467397D01*
X73460457Y-51942725D01*
X73059386Y-51540953D01*
X72535093Y-51323248D01*
X71967397Y-51322752D01*
X71442725Y-51539543D01*
X71040953Y-51940614D01*
X70823248Y-52464907D01*
X70822752Y-53032603D01*
X57676754Y-53032603D01*
X57677248Y-52467397D01*
X57460457Y-51942725D01*
X57059386Y-51540953D01*
X56535093Y-51323248D01*
X55967397Y-51322752D01*
X55442725Y-51539543D01*
X55040953Y-51940614D01*
X54823248Y-52464907D01*
X54822752Y-53032603D01*
X50477000Y-53032603D01*
X50477000Y-52046982D01*
X50601565Y-51420750D01*
X50929684Y-50929684D01*
X51420747Y-50601566D01*
X52046982Y-50477000D01*
X193953018Y-50477000D01*
X194579250Y-50601565D01*
X194579250Y-50601565D01*
G37*
X194579250Y-50601565D02*
X195070316Y-50929684D01*
X195398434Y-51420747D01*
X195523000Y-52046982D01*
X195523000Y-111953018D01*
X195398434Y-112579253D01*
X195070316Y-113070316D01*
X194579250Y-113398435D01*
X193953018Y-113523000D01*
X52046982Y-113523000D01*
X51420747Y-113398434D01*
X50929684Y-113070316D01*
X50601565Y-112579250D01*
X50477000Y-111953018D01*
X50477000Y-111532603D01*
X58322752Y-111532603D01*
X58539543Y-112057275D01*
X58940614Y-112459047D01*
X59464907Y-112676752D01*
X60032603Y-112677248D01*
X60557275Y-112460457D01*
X60959047Y-112059386D01*
X61176752Y-111535093D01*
X61176754Y-111532603D01*
X74322752Y-111532603D01*
X74539543Y-112057275D01*
X74940614Y-112459047D01*
X75464907Y-112676752D01*
X76032603Y-112677248D01*
X76557275Y-112460457D01*
X76959047Y-112059386D01*
X77176752Y-111535093D01*
X77176754Y-111532603D01*
X90322752Y-111532603D01*
X90539543Y-112057275D01*
X90940614Y-112459047D01*
X91464907Y-112676752D01*
X92032603Y-112677248D01*
X92557275Y-112460457D01*
X92959047Y-112059386D01*
X93176752Y-111535093D01*
X93176754Y-111532603D01*
X106322752Y-111532603D01*
X106539543Y-112057275D01*
X106940614Y-112459047D01*
X107464907Y-112676752D01*
X108032603Y-112677248D01*
X108557275Y-112460457D01*
X108959047Y-112059386D01*
X109176752Y-111535093D01*
X109176754Y-111532603D01*
X122322752Y-111532603D01*
X122539543Y-112057275D01*
X122940614Y-112459047D01*
X123464907Y-112676752D01*
X124032603Y-112677248D01*
X124557275Y-112460457D01*
X124959047Y-112059386D01*
X125176752Y-111535093D01*
X125176754Y-111532603D01*
X138322752Y-111532603D01*
X138539543Y-112057275D01*
X138940614Y-112459047D01*
X139464907Y-112676752D01*
X140032603Y-112677248D01*
X140557275Y-112460457D01*
X140959047Y-112059386D01*
X141176752Y-111535093D01*
X141176754Y-111532603D01*
X154322752Y-111532603D01*
X154539543Y-112057275D01*
X154940614Y-112459047D01*
X155464907Y-112676752D01*
X156032603Y-112677248D01*
X156557275Y-112460457D01*
X156959047Y-112059386D01*
X157176752Y-111535093D01*
X157176754Y-111532603D01*
X170322752Y-111532603D01*
X170539543Y-112057275D01*
X170940614Y-112459047D01*
X171464907Y-112676752D01*
X172032603Y-112677248D01*
X172557275Y-112460457D01*
X172959047Y-112059386D01*
X173176752Y-111535093D01*
X173177248Y-110967397D01*
X172960457Y-110442725D01*
X172559386Y-110040953D01*
X172035093Y-109823248D01*
X171467397Y-109822752D01*
X170942725Y-110039543D01*
X170540953Y-110440614D01*
X170323248Y-110964907D01*
X170322752Y-111532603D01*
X157176754Y-111532603D01*
X157177248Y-110967397D01*
X156960457Y-110442725D01*
X156559386Y-110040953D01*
X156035093Y-109823248D01*
X155467397Y-109822752D01*
X154942725Y-110039543D01*
X154540953Y-110440614D01*
X154323248Y-110964907D01*
X154322752Y-111532603D01*
X141176754Y-111532603D01*
X141177248Y-110967397D01*
X140960457Y-110442725D01*
X140559386Y-110040953D01*
X140035093Y-109823248D01*
X139467397Y-109822752D01*
X138942725Y-110039543D01*
X138540953Y-110440614D01*
X138323248Y-110964907D01*
X138322752Y-111532603D01*
X125176754Y-111532603D01*
X125177248Y-110967397D01*
X124960457Y-110442725D01*
X124559386Y-110040953D01*
X124035093Y-109823248D01*
X123467397Y-109822752D01*
X122942725Y-110039543D01*
X122540953Y-110440614D01*
X122323248Y-110964907D01*
X122322752Y-111532603D01*
X109176754Y-111532603D01*
X109177248Y-110967397D01*
X108960457Y-110442725D01*
X108559386Y-110040953D01*
X108035093Y-109823248D01*
X107467397Y-109822752D01*
X106942725Y-110039543D01*
X106540953Y-110440614D01*
X106323248Y-110964907D01*
X106322752Y-111532603D01*
X93176754Y-111532603D01*
X93177248Y-110967397D01*
X92960457Y-110442725D01*
X92559386Y-110040953D01*
X92035093Y-109823248D01*
X91467397Y-109822752D01*
X90942725Y-110039543D01*
X90540953Y-110440614D01*
X90323248Y-110964907D01*
X90322752Y-111532603D01*
X77176754Y-111532603D01*
X77177248Y-110967397D01*
X76960457Y-110442725D01*
X76559386Y-110040953D01*
X76035093Y-109823248D01*
X75467397Y-109822752D01*
X74942725Y-110039543D01*
X74540953Y-110440614D01*
X74323248Y-110964907D01*
X74322752Y-111532603D01*
X61176754Y-111532603D01*
X61177248Y-110967397D01*
X60960457Y-110442725D01*
X60559386Y-110040953D01*
X60035093Y-109823248D01*
X59467397Y-109822752D01*
X58942725Y-110039543D01*
X58540953Y-110440614D01*
X58323248Y-110964907D01*
X58322752Y-111532603D01*
X50477000Y-111532603D01*
X50477000Y-106232112D01*
X52122710Y-106232112D01*
X52377480Y-106848703D01*
X52848816Y-107320862D01*
X53464961Y-107576708D01*
X54132112Y-107577290D01*
X54483469Y-107432112D01*
X60522710Y-107432112D01*
X60777480Y-108048703D01*
X61248816Y-108520862D01*
X61864961Y-108776708D01*
X62532112Y-108777290D01*
X63148703Y-108522520D01*
X63620862Y-108051184D01*
X63876708Y-107435039D01*
X63877290Y-106767888D01*
X63655913Y-106232112D01*
X68122710Y-106232112D01*
X68377480Y-106848703D01*
X68848816Y-107320862D01*
X69464961Y-107576708D01*
X70132112Y-107577290D01*
X70483469Y-107432112D01*
X76522710Y-107432112D01*
X76777480Y-108048703D01*
X77248816Y-108520862D01*
X77864961Y-108776708D01*
X78532112Y-108777290D01*
X79148703Y-108522520D01*
X79620862Y-108051184D01*
X79876708Y-107435039D01*
X79877290Y-106767888D01*
X79655913Y-106232112D01*
X84122710Y-106232112D01*
X84377480Y-106848703D01*
X84848816Y-107320862D01*
X85464961Y-107576708D01*
X86132112Y-107577290D01*
X86483469Y-107432112D01*
X92522710Y-107432112D01*
X92777480Y-108048703D01*
X93248816Y-108520862D01*
X93864961Y-108776708D01*
X94532112Y-108777290D01*
X95148703Y-108522520D01*
X95620862Y-108051184D01*
X95876708Y-107435039D01*
X95877290Y-106767888D01*
X95655913Y-106232112D01*
X100122710Y-106232112D01*
X100377480Y-106848703D01*
X100848816Y-107320862D01*
X101464961Y-107576708D01*
X102132112Y-107577290D01*
X102483469Y-107432112D01*
X108522710Y-107432112D01*
X108777480Y-108048703D01*
X109248816Y-108520862D01*
X109864961Y-108776708D01*
X110532112Y-108777290D01*
X111148703Y-108522520D01*
X111620862Y-108051184D01*
X111876708Y-107435039D01*
X111877290Y-106767888D01*
X111655913Y-106232112D01*
X116122710Y-106232112D01*
X116377480Y-106848703D01*
X116848816Y-107320862D01*
X117464961Y-107576708D01*
X118132112Y-107577290D01*
X118483469Y-107432112D01*
X124522710Y-107432112D01*
X124777480Y-108048703D01*
X125248816Y-108520862D01*
X125864961Y-108776708D01*
X126532112Y-108777290D01*
X127148703Y-108522520D01*
X127620862Y-108051184D01*
X127876708Y-107435039D01*
X127877290Y-106767888D01*
X127655913Y-106232112D01*
X132122710Y-106232112D01*
X132377480Y-106848703D01*
X132848816Y-107320862D01*
X133464961Y-107576708D01*
X134132112Y-107577290D01*
X134483469Y-107432112D01*
X140522710Y-107432112D01*
X140777480Y-108048703D01*
X141248816Y-108520862D01*
X141864961Y-108776708D01*
X142532112Y-108777290D01*
X143148703Y-108522520D01*
X143620862Y-108051184D01*
X143876708Y-107435039D01*
X143877290Y-106767888D01*
X143655913Y-106232112D01*
X148122710Y-106232112D01*
X148377480Y-106848703D01*
X148848816Y-107320862D01*
X149464961Y-107576708D01*
X150132112Y-107577290D01*
X150483469Y-107432112D01*
X156522710Y-107432112D01*
X156777480Y-108048703D01*
X157248816Y-108520862D01*
X157864961Y-108776708D01*
X158532112Y-108777290D01*
X159148703Y-108522520D01*
X159620862Y-108051184D01*
X159876708Y-107435039D01*
X159877290Y-106767888D01*
X159655913Y-106232112D01*
X164122710Y-106232112D01*
X164377480Y-106848703D01*
X164848816Y-107320862D01*
X165464961Y-107576708D01*
X166132112Y-107577290D01*
X166483469Y-107432112D01*
X172522710Y-107432112D01*
X172777480Y-108048703D01*
X173248816Y-108520862D01*
X173864961Y-108776708D01*
X174532112Y-108777290D01*
X175148703Y-108522520D01*
X175620862Y-108051184D01*
X175876708Y-107435039D01*
X175877290Y-106767888D01*
X175622520Y-106151297D01*
X175151184Y-105679138D01*
X174535039Y-105423292D01*
X173867888Y-105422710D01*
X173251297Y-105677480D01*
X172779138Y-106148816D01*
X172523292Y-106764961D01*
X172522710Y-107432112D01*
X166483469Y-107432112D01*
X166748703Y-107322520D01*
X167220862Y-106851184D01*
X167476708Y-106235039D01*
X167477290Y-105567888D01*
X167222520Y-104951297D01*
X166751184Y-104479138D01*
X166135039Y-104223292D01*
X165467888Y-104222710D01*
X164851297Y-104477480D01*
X164379138Y-104948816D01*
X164123292Y-105564961D01*
X164122710Y-106232112D01*
X159655913Y-106232112D01*
X159622520Y-106151297D01*
X159151184Y-105679138D01*
X158535039Y-105423292D01*
X157867888Y-105422710D01*
X157251297Y-105677480D01*
X156779138Y-106148816D01*
X156523292Y-106764961D01*
X156522710Y-107432112D01*
X150483469Y-107432112D01*
X150748703Y-107322520D01*
X151220862Y-106851184D01*
X151476708Y-106235039D01*
X151477290Y-105567888D01*
X151222520Y-104951297D01*
X150751184Y-104479138D01*
X150135039Y-104223292D01*
X149467888Y-104222710D01*
X148851297Y-104477480D01*
X148379138Y-104948816D01*
X148123292Y-105564961D01*
X148122710Y-106232112D01*
X143655913Y-106232112D01*
X143622520Y-106151297D01*
X143151184Y-105679138D01*
X142535039Y-105423292D01*
X141867888Y-105422710D01*
X141251297Y-105677480D01*
X140779138Y-106148816D01*
X140523292Y-106764961D01*
X140522710Y-107432112D01*
X134483469Y-107432112D01*
X134748703Y-107322520D01*
X135220862Y-106851184D01*
X135476708Y-106235039D01*
X135477290Y-105567888D01*
X135222520Y-104951297D01*
X134751184Y-104479138D01*
X134135039Y-104223292D01*
X133467888Y-104222710D01*
X132851297Y-104477480D01*
X132379138Y-104948816D01*
X132123292Y-105564961D01*
X132122710Y-106232112D01*
X127655913Y-106232112D01*
X127622520Y-106151297D01*
X127151184Y-105679138D01*
X126535039Y-105423292D01*
X125867888Y-105422710D01*
X125251297Y-105677480D01*
X124779138Y-106148816D01*
X124523292Y-106764961D01*
X124522710Y-107432112D01*
X118483469Y-107432112D01*
X118748703Y-107322520D01*
X119220862Y-106851184D01*
X119476708Y-106235039D01*
X119477290Y-105567888D01*
X119222520Y-104951297D01*
X118751184Y-104479138D01*
X118135039Y-104223292D01*
X117467888Y-104222710D01*
X116851297Y-104477480D01*
X116379138Y-104948816D01*
X116123292Y-105564961D01*
X116122710Y-106232112D01*
X111655913Y-106232112D01*
X111622520Y-106151297D01*
X111151184Y-105679138D01*
X110535039Y-105423292D01*
X109867888Y-105422710D01*
X109251297Y-105677480D01*
X108779138Y-106148816D01*
X108523292Y-106764961D01*
X108522710Y-107432112D01*
X102483469Y-107432112D01*
X102748703Y-107322520D01*
X103220862Y-106851184D01*
X103476708Y-106235039D01*
X103477290Y-105567888D01*
X103222520Y-104951297D01*
X102751184Y-104479138D01*
X102135039Y-104223292D01*
X101467888Y-104222710D01*
X100851297Y-104477480D01*
X100379138Y-104948816D01*
X100123292Y-105564961D01*
X100122710Y-106232112D01*
X95655913Y-106232112D01*
X95622520Y-106151297D01*
X95151184Y-105679138D01*
X94535039Y-105423292D01*
X93867888Y-105422710D01*
X93251297Y-105677480D01*
X92779138Y-106148816D01*
X92523292Y-106764961D01*
X92522710Y-107432112D01*
X86483469Y-107432112D01*
X86748703Y-107322520D01*
X87220862Y-106851184D01*
X87476708Y-106235039D01*
X87477290Y-105567888D01*
X87222520Y-104951297D01*
X86751184Y-104479138D01*
X86135039Y-104223292D01*
X85467888Y-104222710D01*
X84851297Y-104477480D01*
X84379138Y-104948816D01*
X84123292Y-105564961D01*
X84122710Y-106232112D01*
X79655913Y-106232112D01*
X79622520Y-106151297D01*
X79151184Y-105679138D01*
X78535039Y-105423292D01*
X77867888Y-105422710D01*
X77251297Y-105677480D01*
X76779138Y-106148816D01*
X76523292Y-106764961D01*
X76522710Y-107432112D01*
X70483469Y-107432112D01*
X70748703Y-107322520D01*
X71220862Y-106851184D01*
X71476708Y-106235039D01*
X71477290Y-105567888D01*
X71222520Y-104951297D01*
X70751184Y-104479138D01*
X70135039Y-104223292D01*
X69467888Y-104222710D01*
X68851297Y-104477480D01*
X68379138Y-104948816D01*
X68123292Y-105564961D01*
X68122710Y-106232112D01*
X63655913Y-106232112D01*
X63622520Y-106151297D01*
X63151184Y-105679138D01*
X62535039Y-105423292D01*
X61867888Y-105422710D01*
X61251297Y-105677480D01*
X60779138Y-106148816D01*
X60523292Y-106764961D01*
X60522710Y-107432112D01*
X54483469Y-107432112D01*
X54748703Y-107322520D01*
X55220862Y-106851184D01*
X55476708Y-106235039D01*
X55477290Y-105567888D01*
X55222520Y-104951297D01*
X54751184Y-104479138D01*
X54135039Y-104223292D01*
X53467888Y-104222710D01*
X52851297Y-104477480D01*
X52379138Y-104948816D01*
X52123292Y-105564961D01*
X52122710Y-106232112D01*
X50477000Y-106232112D01*
X50477000Y-91114744D01*
X176920500Y-91114744D01*
X177008522Y-91327775D01*
X177171368Y-91490905D01*
X177193061Y-91499913D01*
X177172225Y-91508522D01*
X177009095Y-91671368D01*
X176920701Y-91884245D01*
X176920500Y-92114744D01*
X177008522Y-92327775D01*
X177171368Y-92490905D01*
X177384245Y-92579299D01*
X177420531Y-92579331D01*
X177420500Y-92614744D01*
X177508522Y-92827775D01*
X177671368Y-92990905D01*
X177884245Y-93079299D01*
X177920531Y-93079331D01*
X177920500Y-93114744D01*
X178008522Y-93327775D01*
X178171368Y-93490905D01*
X178384245Y-93579299D01*
X178420531Y-93579331D01*
X178420500Y-93614744D01*
X178508522Y-93827775D01*
X178671368Y-93990905D01*
X178884245Y-94079299D01*
X179114744Y-94079500D01*
X179176459Y-94054000D01*
X183000000Y-94054000D01*
X183212007Y-94011829D01*
X183391737Y-93891737D01*
X185266803Y-92016671D01*
X185327775Y-91991478D01*
X185490905Y-91828632D01*
X185579299Y-91615755D01*
X185579500Y-91385256D01*
X185491478Y-91172225D01*
X185328632Y-91009095D01*
X185115755Y-90920701D01*
X184885256Y-90920500D01*
X184672225Y-91008522D01*
X184509095Y-91171368D01*
X184483487Y-91233039D01*
X183506922Y-92209604D01*
X183491478Y-92172225D01*
X183328632Y-92009095D01*
X183115755Y-91920701D01*
X183079469Y-91920669D01*
X183079500Y-91885256D01*
X182991478Y-91672225D01*
X182828632Y-91509095D01*
X182615755Y-91420701D01*
X182385256Y-91420500D01*
X182323541Y-91446000D01*
X179810527Y-91446000D01*
X179891737Y-91391737D01*
X180266803Y-91016671D01*
X180327775Y-90991478D01*
X180490905Y-90828632D01*
X180579299Y-90615755D01*
X180579500Y-90385256D01*
X180491478Y-90172225D01*
X180328632Y-90009095D01*
X180115755Y-89920701D01*
X179885256Y-89920500D01*
X179672225Y-90008522D01*
X179509095Y-90171368D01*
X179483487Y-90233039D01*
X179270526Y-90446000D01*
X177676682Y-90446000D01*
X177615755Y-90420701D01*
X177385256Y-90420500D01*
X177172225Y-90508522D01*
X177009095Y-90671368D01*
X176920701Y-90884245D01*
X176920500Y-91114744D01*
X50477000Y-91114744D01*
X50477000Y-83282603D01*
X184032752Y-83282603D01*
X184249543Y-83807275D01*
X184650614Y-84209047D01*
X185174907Y-84426752D01*
X185742603Y-84427248D01*
X186267275Y-84210457D01*
X186669047Y-83809386D01*
X186886752Y-83285093D01*
X186887248Y-82717397D01*
X186670457Y-82192725D01*
X186269386Y-81790953D01*
X185745093Y-81573248D01*
X185177397Y-81572752D01*
X184652725Y-81789543D01*
X184250953Y-82190614D01*
X184033248Y-82714907D01*
X184032752Y-83282603D01*
X50477000Y-83282603D01*
X50477000Y-76620000D01*
X190528730Y-76620000D01*
X190626971Y-77113891D01*
X190906738Y-77532592D01*
X191325439Y-77812359D01*
X191715767Y-77890000D01*
X191325439Y-77967641D01*
X190906738Y-78247408D01*
X190626971Y-78666109D01*
X190528730Y-79160000D01*
X190626971Y-79653891D01*
X190906738Y-80072592D01*
X191325439Y-80352359D01*
X191819330Y-80450600D01*
X192180670Y-80450600D01*
X192674561Y-80352359D01*
X193093262Y-80072592D01*
X193373029Y-79653891D01*
X193471270Y-79160000D01*
X193373029Y-78666109D01*
X193093262Y-78247408D01*
X192674561Y-77967641D01*
X192284233Y-77890000D01*
X192674561Y-77812359D01*
X193093262Y-77532592D01*
X193373029Y-77113891D01*
X193471270Y-76620000D01*
X193373029Y-76126109D01*
X193093262Y-75707408D01*
X192674561Y-75427641D01*
X192180670Y-75329400D01*
X191819330Y-75329400D01*
X191325439Y-75427641D01*
X190906738Y-75707408D01*
X190626971Y-76126109D01*
X190528730Y-76620000D01*
X50477000Y-76620000D01*
X50477000Y-71114744D01*
X182420500Y-71114744D01*
X182508522Y-71327775D01*
X182671368Y-71490905D01*
X182884245Y-71579299D01*
X183114744Y-71579500D01*
X183327775Y-71491478D01*
X183373000Y-71446332D01*
X183373000Y-72000000D01*
X183383006Y-72049410D01*
X183411447Y-72091035D01*
X183453841Y-72118315D01*
X183500000Y-72127000D01*
X186500000Y-72127000D01*
X186549410Y-72116994D01*
X186591035Y-72088553D01*
X186618315Y-72046159D01*
X186627000Y-72000000D01*
X186627000Y-71540000D01*
X190528730Y-71540000D01*
X190626971Y-72033891D01*
X190906738Y-72452592D01*
X191325439Y-72732359D01*
X191819330Y-72830600D01*
X192180670Y-72830600D01*
X192674561Y-72732359D01*
X193093262Y-72452592D01*
X193373029Y-72033891D01*
X193471270Y-71540000D01*
X193373029Y-71046109D01*
X193093262Y-70627408D01*
X192674561Y-70347641D01*
X192429850Y-70298965D01*
X193016000Y-70298965D01*
X193174237Y-70269191D01*
X193319567Y-70175673D01*
X193417064Y-70032981D01*
X193451365Y-69863600D01*
X193451365Y-68136400D01*
X193421591Y-67978163D01*
X193328073Y-67832833D01*
X193185381Y-67735336D01*
X193016000Y-67701035D01*
X190984000Y-67701035D01*
X190825763Y-67730809D01*
X190680433Y-67824327D01*
X190582936Y-67967019D01*
X190548635Y-68136400D01*
X190548635Y-69863600D01*
X190578409Y-70021837D01*
X190671927Y-70167167D01*
X190814619Y-70264664D01*
X190984000Y-70298965D01*
X191570150Y-70298965D01*
X191325439Y-70347641D01*
X190906738Y-70627408D01*
X190626971Y-71046109D01*
X190528730Y-71540000D01*
X186627000Y-71540000D01*
X186627000Y-71000000D01*
X186616994Y-70950590D01*
X186588553Y-70908965D01*
X186546159Y-70881685D01*
X186500000Y-70873000D01*
X186446460Y-70873000D01*
X186490905Y-70828632D01*
X186579299Y-70615755D01*
X186579500Y-70385256D01*
X186491478Y-70172225D01*
X186328632Y-70009095D01*
X186115755Y-69920701D01*
X185885256Y-69920500D01*
X185823541Y-69946000D01*
X183500000Y-69946000D01*
X183287993Y-69988171D01*
X183108263Y-70108263D01*
X182733197Y-70483329D01*
X182672225Y-70508522D01*
X182509095Y-70671368D01*
X182420701Y-70884245D01*
X182420500Y-71114744D01*
X50477000Y-71114744D01*
X50477000Y-65235469D01*
X183810794Y-65235469D01*
X183991427Y-65672635D01*
X184325606Y-66007397D01*
X184762456Y-66188793D01*
X185235469Y-66189206D01*
X185672635Y-66008573D01*
X186007397Y-65674394D01*
X186188793Y-65237544D01*
X186189206Y-64764531D01*
X186008573Y-64327365D01*
X185674394Y-63992603D01*
X185237544Y-63811207D01*
X184764531Y-63810794D01*
X184327365Y-63991427D01*
X183992603Y-64325606D01*
X183811207Y-64762456D01*
X183810794Y-65235469D01*
X50477000Y-65235469D01*
X50477000Y-63236489D01*
X186350794Y-63236489D01*
X186531427Y-63673655D01*
X186857989Y-64000787D01*
X186532603Y-64325606D01*
X186351207Y-64762456D01*
X186350794Y-65235469D01*
X186531427Y-65672635D01*
X186865606Y-66007397D01*
X187302456Y-66188793D01*
X187775469Y-66189206D01*
X188212635Y-66008573D01*
X188547397Y-65674394D01*
X188728793Y-65237544D01*
X188729206Y-64764531D01*
X188548573Y-64327365D01*
X188222011Y-64000233D01*
X188547397Y-63675414D01*
X188728793Y-63238564D01*
X188729206Y-62765551D01*
X188548573Y-62328385D01*
X188214394Y-61993623D01*
X187777544Y-61812227D01*
X187304531Y-61811814D01*
X186867365Y-61992447D01*
X186532603Y-62326626D01*
X186351207Y-62763476D01*
X186350794Y-63236489D01*
X50477000Y-63236489D01*
X50477000Y-60652918D01*
X178493202Y-60652918D01*
X178763166Y-61306280D01*
X179262610Y-61806598D01*
X179915500Y-62077701D01*
X180622438Y-62078318D01*
X181275800Y-61808354D01*
X181776118Y-61308910D01*
X182047221Y-60656020D01*
X182047223Y-60652918D01*
X190492162Y-60652918D01*
X190762126Y-61306280D01*
X191261570Y-61806598D01*
X191914460Y-62077701D01*
X192621398Y-62078318D01*
X193274760Y-61808354D01*
X193775078Y-61308910D01*
X194046181Y-60656020D01*
X194046798Y-59949082D01*
X193776834Y-59295720D01*
X193277390Y-58795402D01*
X192624500Y-58524299D01*
X191917562Y-58523682D01*
X191264200Y-58793646D01*
X190763882Y-59293090D01*
X190492779Y-59945980D01*
X190492162Y-60652918D01*
X182047223Y-60652918D01*
X182047838Y-59949082D01*
X181777874Y-59295720D01*
X181278430Y-58795402D01*
X180625540Y-58524299D01*
X179918602Y-58523682D01*
X179265240Y-58793646D01*
X178764922Y-59293090D01*
X178493819Y-59945980D01*
X178493202Y-60652918D01*
X50477000Y-60652918D01*
X50477000Y-58432112D01*
X52122710Y-58432112D01*
X52377480Y-59048703D01*
X52848816Y-59520862D01*
X53464961Y-59776708D01*
X54132112Y-59777290D01*
X54748703Y-59522520D01*
X55220862Y-59051184D01*
X55476708Y-58435039D01*
X55477290Y-57767888D01*
X55255913Y-57232112D01*
X60522710Y-57232112D01*
X60777480Y-57848703D01*
X61248816Y-58320862D01*
X61864961Y-58576708D01*
X62532112Y-58577290D01*
X62883469Y-58432112D01*
X68122710Y-58432112D01*
X68377480Y-59048703D01*
X68848816Y-59520862D01*
X69464961Y-59776708D01*
X70132112Y-59777290D01*
X70748703Y-59522520D01*
X71220862Y-59051184D01*
X71476708Y-58435039D01*
X71477290Y-57767888D01*
X71255913Y-57232112D01*
X76522710Y-57232112D01*
X76777480Y-57848703D01*
X77248816Y-58320862D01*
X77864961Y-58576708D01*
X78532112Y-58577290D01*
X78883469Y-58432112D01*
X84122710Y-58432112D01*
X84377480Y-59048703D01*
X84848816Y-59520862D01*
X85464961Y-59776708D01*
X86132112Y-59777290D01*
X86748703Y-59522520D01*
X87220862Y-59051184D01*
X87476708Y-58435039D01*
X87477290Y-57767888D01*
X87255913Y-57232112D01*
X92522710Y-57232112D01*
X92777480Y-57848703D01*
X93248816Y-58320862D01*
X93864961Y-58576708D01*
X94532112Y-58577290D01*
X94883469Y-58432112D01*
X100122710Y-58432112D01*
X100377480Y-59048703D01*
X100848816Y-59520862D01*
X101464961Y-59776708D01*
X102132112Y-59777290D01*
X102748703Y-59522520D01*
X103220862Y-59051184D01*
X103476708Y-58435039D01*
X103477290Y-57767888D01*
X103255913Y-57232112D01*
X108522710Y-57232112D01*
X108777480Y-57848703D01*
X109248816Y-58320862D01*
X109864961Y-58576708D01*
X110532112Y-58577290D01*
X110883469Y-58432112D01*
X116122710Y-58432112D01*
X116377480Y-59048703D01*
X116848816Y-59520862D01*
X117464961Y-59776708D01*
X118132112Y-59777290D01*
X118748703Y-59522520D01*
X119220862Y-59051184D01*
X119476708Y-58435039D01*
X119477290Y-57767888D01*
X119255913Y-57232112D01*
X124522710Y-57232112D01*
X124777480Y-57848703D01*
X125248816Y-58320862D01*
X125864961Y-58576708D01*
X126532112Y-58577290D01*
X126883469Y-58432112D01*
X132122710Y-58432112D01*
X132377480Y-59048703D01*
X132848816Y-59520862D01*
X133464961Y-59776708D01*
X134132112Y-59777290D01*
X134748703Y-59522520D01*
X135220862Y-59051184D01*
X135476708Y-58435039D01*
X135477290Y-57767888D01*
X135255913Y-57232112D01*
X140522710Y-57232112D01*
X140777480Y-57848703D01*
X141248816Y-58320862D01*
X141864961Y-58576708D01*
X142532112Y-58577290D01*
X142883469Y-58432112D01*
X148122710Y-58432112D01*
X148377480Y-59048703D01*
X148848816Y-59520862D01*
X149464961Y-59776708D01*
X150132112Y-59777290D01*
X150748703Y-59522520D01*
X151220862Y-59051184D01*
X151476708Y-58435039D01*
X151477290Y-57767888D01*
X151255913Y-57232112D01*
X156522710Y-57232112D01*
X156777480Y-57848703D01*
X157248816Y-58320862D01*
X157864961Y-58576708D01*
X158532112Y-58577290D01*
X158883469Y-58432112D01*
X164122710Y-58432112D01*
X164377480Y-59048703D01*
X164848816Y-59520862D01*
X165464961Y-59776708D01*
X166132112Y-59777290D01*
X166748703Y-59522520D01*
X167220862Y-59051184D01*
X167476708Y-58435039D01*
X167477290Y-57767888D01*
X167255913Y-57232112D01*
X172522710Y-57232112D01*
X172777480Y-57848703D01*
X173248816Y-58320862D01*
X173864961Y-58576708D01*
X174532112Y-58577290D01*
X175148703Y-58322520D01*
X175620862Y-57851184D01*
X175876708Y-57235039D01*
X175877290Y-56567888D01*
X175622520Y-55951297D01*
X175151184Y-55479138D01*
X174535039Y-55223292D01*
X173867888Y-55222710D01*
X173251297Y-55477480D01*
X172779138Y-55948816D01*
X172523292Y-56564961D01*
X172522710Y-57232112D01*
X167255913Y-57232112D01*
X167222520Y-57151297D01*
X166751184Y-56679138D01*
X166135039Y-56423292D01*
X165467888Y-56422710D01*
X164851297Y-56677480D01*
X164379138Y-57148816D01*
X164123292Y-57764961D01*
X164122710Y-58432112D01*
X158883469Y-58432112D01*
X159148703Y-58322520D01*
X159620862Y-57851184D01*
X159876708Y-57235039D01*
X159877290Y-56567888D01*
X159622520Y-55951297D01*
X159151184Y-55479138D01*
X158535039Y-55223292D01*
X157867888Y-55222710D01*
X157251297Y-55477480D01*
X156779138Y-55948816D01*
X156523292Y-56564961D01*
X156522710Y-57232112D01*
X151255913Y-57232112D01*
X151222520Y-57151297D01*
X150751184Y-56679138D01*
X150135039Y-56423292D01*
X149467888Y-56422710D01*
X148851297Y-56677480D01*
X148379138Y-57148816D01*
X148123292Y-57764961D01*
X148122710Y-58432112D01*
X142883469Y-58432112D01*
X143148703Y-58322520D01*
X143620862Y-57851184D01*
X143876708Y-57235039D01*
X143877290Y-56567888D01*
X143622520Y-55951297D01*
X143151184Y-55479138D01*
X142535039Y-55223292D01*
X141867888Y-55222710D01*
X141251297Y-55477480D01*
X140779138Y-55948816D01*
X140523292Y-56564961D01*
X140522710Y-57232112D01*
X135255913Y-57232112D01*
X135222520Y-57151297D01*
X134751184Y-56679138D01*
X134135039Y-56423292D01*
X133467888Y-56422710D01*
X132851297Y-56677480D01*
X132379138Y-57148816D01*
X132123292Y-57764961D01*
X132122710Y-58432112D01*
X126883469Y-58432112D01*
X127148703Y-58322520D01*
X127620862Y-57851184D01*
X127876708Y-57235039D01*
X127877290Y-56567888D01*
X127622520Y-55951297D01*
X127151184Y-55479138D01*
X126535039Y-55223292D01*
X125867888Y-55222710D01*
X125251297Y-55477480D01*
X124779138Y-55948816D01*
X124523292Y-56564961D01*
X124522710Y-57232112D01*
X119255913Y-57232112D01*
X119222520Y-57151297D01*
X118751184Y-56679138D01*
X118135039Y-56423292D01*
X117467888Y-56422710D01*
X116851297Y-56677480D01*
X116379138Y-57148816D01*
X116123292Y-57764961D01*
X116122710Y-58432112D01*
X110883469Y-58432112D01*
X111148703Y-58322520D01*
X111620862Y-57851184D01*
X111876708Y-57235039D01*
X111877290Y-56567888D01*
X111622520Y-55951297D01*
X111151184Y-55479138D01*
X110535039Y-55223292D01*
X109867888Y-55222710D01*
X109251297Y-55477480D01*
X108779138Y-55948816D01*
X108523292Y-56564961D01*
X108522710Y-57232112D01*
X103255913Y-57232112D01*
X103222520Y-57151297D01*
X102751184Y-56679138D01*
X102135039Y-56423292D01*
X101467888Y-56422710D01*
X100851297Y-56677480D01*
X100379138Y-57148816D01*
X100123292Y-57764961D01*
X100122710Y-58432112D01*
X94883469Y-58432112D01*
X95148703Y-58322520D01*
X95620862Y-57851184D01*
X95876708Y-57235039D01*
X95877290Y-56567888D01*
X95622520Y-55951297D01*
X95151184Y-55479138D01*
X94535039Y-55223292D01*
X93867888Y-55222710D01*
X93251297Y-55477480D01*
X92779138Y-55948816D01*
X92523292Y-56564961D01*
X92522710Y-57232112D01*
X87255913Y-57232112D01*
X87222520Y-57151297D01*
X86751184Y-56679138D01*
X86135039Y-56423292D01*
X85467888Y-56422710D01*
X84851297Y-56677480D01*
X84379138Y-57148816D01*
X84123292Y-57764961D01*
X84122710Y-58432112D01*
X78883469Y-58432112D01*
X79148703Y-58322520D01*
X79620862Y-57851184D01*
X79876708Y-57235039D01*
X79877290Y-56567888D01*
X79622520Y-55951297D01*
X79151184Y-55479138D01*
X78535039Y-55223292D01*
X77867888Y-55222710D01*
X77251297Y-55477480D01*
X76779138Y-55948816D01*
X76523292Y-56564961D01*
X76522710Y-57232112D01*
X71255913Y-57232112D01*
X71222520Y-57151297D01*
X70751184Y-56679138D01*
X70135039Y-56423292D01*
X69467888Y-56422710D01*
X68851297Y-56677480D01*
X68379138Y-57148816D01*
X68123292Y-57764961D01*
X68122710Y-58432112D01*
X62883469Y-58432112D01*
X63148703Y-58322520D01*
X63620862Y-57851184D01*
X63876708Y-57235039D01*
X63877290Y-56567888D01*
X63622520Y-55951297D01*
X63151184Y-55479138D01*
X62535039Y-55223292D01*
X61867888Y-55222710D01*
X61251297Y-55477480D01*
X60779138Y-55948816D01*
X60523292Y-56564961D01*
X60522710Y-57232112D01*
X55255913Y-57232112D01*
X55222520Y-57151297D01*
X54751184Y-56679138D01*
X54135039Y-56423292D01*
X53467888Y-56422710D01*
X52851297Y-56677480D01*
X52379138Y-57148816D01*
X52123292Y-57764961D01*
X52122710Y-58432112D01*
X50477000Y-58432112D01*
X50477000Y-53032603D01*
X54822752Y-53032603D01*
X55039543Y-53557275D01*
X55440614Y-53959047D01*
X55964907Y-54176752D01*
X56532603Y-54177248D01*
X57057275Y-53960457D01*
X57459047Y-53559386D01*
X57676752Y-53035093D01*
X57676754Y-53032603D01*
X70822752Y-53032603D01*
X71039543Y-53557275D01*
X71440614Y-53959047D01*
X71964907Y-54176752D01*
X72532603Y-54177248D01*
X73057275Y-53960457D01*
X73459047Y-53559386D01*
X73676752Y-53035093D01*
X73676754Y-53032603D01*
X86822752Y-53032603D01*
X87039543Y-53557275D01*
X87440614Y-53959047D01*
X87964907Y-54176752D01*
X88532603Y-54177248D01*
X89057275Y-53960457D01*
X89459047Y-53559386D01*
X89676752Y-53035093D01*
X89676754Y-53032603D01*
X102822752Y-53032603D01*
X103039543Y-53557275D01*
X103440614Y-53959047D01*
X103964907Y-54176752D01*
X104532603Y-54177248D01*
X105057275Y-53960457D01*
X105459047Y-53559386D01*
X105676752Y-53035093D01*
X105676754Y-53032603D01*
X118822752Y-53032603D01*
X119039543Y-53557275D01*
X119440614Y-53959047D01*
X119964907Y-54176752D01*
X120532603Y-54177248D01*
X121057275Y-53960457D01*
X121459047Y-53559386D01*
X121676752Y-53035093D01*
X121676754Y-53032603D01*
X134822752Y-53032603D01*
X135039543Y-53557275D01*
X135440614Y-53959047D01*
X135964907Y-54176752D01*
X136532603Y-54177248D01*
X137057275Y-53960457D01*
X137459047Y-53559386D01*
X137676752Y-53035093D01*
X137676754Y-53032603D01*
X150822752Y-53032603D01*
X151039543Y-53557275D01*
X151440614Y-53959047D01*
X151964907Y-54176752D01*
X152532603Y-54177248D01*
X153057275Y-53960457D01*
X153459047Y-53559386D01*
X153676752Y-53035093D01*
X153676754Y-53032603D01*
X166822752Y-53032603D01*
X167039543Y-53557275D01*
X167440614Y-53959047D01*
X167964907Y-54176752D01*
X168532603Y-54177248D01*
X169057275Y-53960457D01*
X169459047Y-53559386D01*
X169676752Y-53035093D01*
X169677248Y-52467397D01*
X169460457Y-51942725D01*
X169059386Y-51540953D01*
X168535093Y-51323248D01*
X167967397Y-51322752D01*
X167442725Y-51539543D01*
X167040953Y-51940614D01*
X166823248Y-52464907D01*
X166822752Y-53032603D01*
X153676754Y-53032603D01*
X153677248Y-52467397D01*
X153460457Y-51942725D01*
X153059386Y-51540953D01*
X152535093Y-51323248D01*
X151967397Y-51322752D01*
X151442725Y-51539543D01*
X151040953Y-51940614D01*
X150823248Y-52464907D01*
X150822752Y-53032603D01*
X137676754Y-53032603D01*
X137677248Y-52467397D01*
X137460457Y-51942725D01*
X137059386Y-51540953D01*
X136535093Y-51323248D01*
X135967397Y-51322752D01*
X135442725Y-51539543D01*
X135040953Y-51940614D01*
X134823248Y-52464907D01*
X134822752Y-53032603D01*
X121676754Y-53032603D01*
X121677248Y-52467397D01*
X121460457Y-51942725D01*
X121059386Y-51540953D01*
X120535093Y-51323248D01*
X119967397Y-51322752D01*
X119442725Y-51539543D01*
X119040953Y-51940614D01*
X118823248Y-52464907D01*
X118822752Y-53032603D01*
X105676754Y-53032603D01*
X105677248Y-52467397D01*
X105460457Y-51942725D01*
X105059386Y-51540953D01*
X104535093Y-51323248D01*
X103967397Y-51322752D01*
X103442725Y-51539543D01*
X103040953Y-51940614D01*
X102823248Y-52464907D01*
X102822752Y-53032603D01*
X89676754Y-53032603D01*
X89677248Y-52467397D01*
X89460457Y-51942725D01*
X89059386Y-51540953D01*
X88535093Y-51323248D01*
X87967397Y-51322752D01*
X87442725Y-51539543D01*
X87040953Y-51940614D01*
X86823248Y-52464907D01*
X86822752Y-53032603D01*
X73676754Y-53032603D01*
X73677248Y-52467397D01*
X73460457Y-51942725D01*
X73059386Y-51540953D01*
X72535093Y-51323248D01*
X71967397Y-51322752D01*
X71442725Y-51539543D01*
X71040953Y-51940614D01*
X70823248Y-52464907D01*
X70822752Y-53032603D01*
X57676754Y-53032603D01*
X57677248Y-52467397D01*
X57460457Y-51942725D01*
X57059386Y-51540953D01*
X56535093Y-51323248D01*
X55967397Y-51322752D01*
X55442725Y-51539543D01*
X55040953Y-51940614D01*
X54823248Y-52464907D01*
X54822752Y-53032603D01*
X50477000Y-53032603D01*
X50477000Y-52046982D01*
X50601565Y-51420750D01*
X50929684Y-50929684D01*
X51420747Y-50601566D01*
X52046982Y-50477000D01*
X193953018Y-50477000D01*
X194579250Y-50601565D01*
M02*
