G04 #@! TF.FileFunction,Copper,L1,Top,Signal*
%FSLAX46Y46*%
G04 Gerber Fmt 4.6, Leading zero omitted, Abs format (unit mm)*
G04 Created by KiCad (PCBNEW 4.0.2-stable) date 2016 July 30, Saturday 23:08:24*
%MOMM*%
G01*
G04 APERTURE LIST*
%ADD10C,0.100000*%
%ADD11R,1.250000X1.500000*%
%ADD12R,1.500000X0.600000*%
%ADD13R,1.500000X1.250000*%
%ADD14R,2.000000X2.000000*%
%ADD15C,2.000000*%
%ADD16C,1.524000*%
%ADD17C,2.700020*%
%ADD18R,2.032000X1.727200*%
%ADD19O,2.032000X1.727200*%
%ADD20R,1.300000X1.500000*%
%ADD21C,2.500000*%
%ADD22C,0.304800*%
%ADD23C,0.254000*%
G04 APERTURE END LIST*
D10*
D11*
X189000000Y-72750000D03*
X189000000Y-75250000D03*
D12*
X181300000Y-72190000D03*
X181300000Y-73460000D03*
X181300000Y-74730000D03*
X181300000Y-76000000D03*
X181300000Y-77270000D03*
X181300000Y-78540000D03*
X181300000Y-79810000D03*
X186700000Y-79810000D03*
X186700000Y-78540000D03*
X186700000Y-77270000D03*
X186700000Y-76000000D03*
X186700000Y-74730000D03*
X186700000Y-73460000D03*
X186700000Y-72190000D03*
D13*
X183750000Y-70000000D03*
X181250000Y-70000000D03*
X185250000Y-97500000D03*
X182750000Y-97500000D03*
X183750000Y-68000000D03*
X181250000Y-68000000D03*
D14*
X188000000Y-83000000D03*
D15*
X185460000Y-83000000D03*
D16*
X187540000Y-65000000D03*
X185000000Y-65000000D03*
X185000000Y-63001020D03*
X187540000Y-63001020D03*
D17*
X192269480Y-60301000D03*
X180270520Y-60301000D03*
D18*
X192000000Y-69000000D03*
D19*
X192000000Y-71540000D03*
X192000000Y-74080000D03*
X192000000Y-76620000D03*
X192000000Y-79160000D03*
D20*
X183000000Y-81650000D03*
X183000000Y-84350000D03*
D21*
X62200000Y-107100000D03*
X62200000Y-56900000D03*
X53800000Y-58100000D03*
D15*
X56250000Y-52750000D03*
X59750000Y-111250000D03*
X56250000Y-111250000D03*
D21*
X53800000Y-105900000D03*
X78200000Y-107100000D03*
X78200000Y-56900000D03*
X69800000Y-58100000D03*
D15*
X72250000Y-52750000D03*
X75750000Y-111250000D03*
X72250000Y-111250000D03*
D21*
X69800000Y-105900000D03*
X94200000Y-107100000D03*
X94200000Y-56900000D03*
X85800000Y-58100000D03*
D15*
X88250000Y-52750000D03*
X91750000Y-111250000D03*
X88250000Y-111250000D03*
D21*
X85800000Y-105900000D03*
X110200000Y-107100000D03*
X110200000Y-56900000D03*
X101800000Y-58100000D03*
D15*
X104250000Y-52750000D03*
X107750000Y-111250000D03*
X104250000Y-111250000D03*
D21*
X101800000Y-105900000D03*
X126200000Y-107100000D03*
X126200000Y-56900000D03*
X117800000Y-58100000D03*
D15*
X120250000Y-52750000D03*
X123750000Y-111250000D03*
X120250000Y-111250000D03*
D21*
X117800000Y-105900000D03*
X142200000Y-107100000D03*
X142200000Y-56900000D03*
X133800000Y-58100000D03*
D15*
X136250000Y-52750000D03*
X139750000Y-111250000D03*
X136250000Y-111250000D03*
D21*
X133800000Y-105900000D03*
X158200000Y-107100000D03*
X158200000Y-56900000D03*
X149800000Y-58100000D03*
D15*
X152250000Y-52750000D03*
X155750000Y-111250000D03*
X152250000Y-111250000D03*
D21*
X149800000Y-105900000D03*
X174200000Y-107100000D03*
X174200000Y-56900000D03*
X165800000Y-58100000D03*
D15*
X168250000Y-52750000D03*
X171750000Y-111250000D03*
X168250000Y-111250000D03*
D21*
X165800000Y-105900000D03*
D12*
X186700000Y-95445000D03*
X186700000Y-94175000D03*
X186700000Y-92905000D03*
X186700000Y-91635000D03*
X186700000Y-90365000D03*
X186700000Y-89095000D03*
X186700000Y-87825000D03*
X186700000Y-86555000D03*
X181300000Y-86555000D03*
X181300000Y-87825000D03*
X181300000Y-89095000D03*
X181300000Y-90365000D03*
X181300000Y-91635000D03*
X181300000Y-92905000D03*
X181300000Y-94175000D03*
X181300000Y-95445000D03*
D22*
X186000000Y-71500000D03*
X186500000Y-96500000D03*
X186500000Y-96500000D03*
X183750000Y-67000000D03*
X184000000Y-71500000D03*
X188000000Y-86550000D03*
X188000000Y-89100000D03*
X188000000Y-87825000D03*
X183000000Y-71000000D03*
X186000000Y-70500000D03*
X180000000Y-90500000D03*
X177500000Y-91000000D03*
X177500000Y-92000000D03*
X182500000Y-92000000D03*
X183000000Y-92500000D03*
X178000000Y-92500000D03*
X182500000Y-93000000D03*
X178500000Y-93000000D03*
X185000000Y-91500000D03*
X179000000Y-93500000D03*
D23*
X186000000Y-71500000D02*
X186010000Y-71500000D01*
X186010000Y-71500000D02*
X186700000Y-72190000D01*
X186700000Y-72190000D02*
X188440000Y-72190000D01*
X188440000Y-72190000D02*
X189000000Y-72750000D01*
X185500000Y-97500000D02*
X186500000Y-96500000D01*
X185250000Y-97500000D02*
X185500000Y-97500000D01*
X183750000Y-68000000D02*
X183750000Y-67000000D01*
X183750000Y-71250000D02*
X184000000Y-71500000D01*
X183750000Y-70000000D02*
X183750000Y-71250000D01*
X187995000Y-86555000D02*
X188000000Y-86550000D01*
X186700000Y-86555000D02*
X187995000Y-86555000D01*
X186700000Y-89095000D02*
X187995000Y-89095000D01*
X187995000Y-89095000D02*
X188000000Y-89100000D01*
X186700000Y-87825000D02*
X188000000Y-87825000D01*
X183750000Y-68000000D02*
X183750000Y-70000000D01*
X181300000Y-95445000D02*
X181300000Y-96050000D01*
X181300000Y-96050000D02*
X182750000Y-97500000D01*
X186700000Y-76000000D02*
X188250000Y-76000000D01*
X188250000Y-76000000D02*
X189000000Y-75250000D01*
X183000000Y-84350000D02*
X184350000Y-83000000D01*
X184350000Y-83000000D02*
X185460000Y-83000000D01*
X186700000Y-74730000D02*
X185730000Y-74730000D01*
X185730000Y-74730000D02*
X185000000Y-74000000D01*
X185000000Y-74000000D02*
X185000000Y-68500000D01*
X185000000Y-68500000D02*
X187540000Y-65960000D01*
X187540000Y-65960000D02*
X187540000Y-65000000D01*
X187540000Y-63001020D02*
X187540000Y-63040000D01*
X187540000Y-63040000D02*
X189000000Y-64500000D01*
X189000000Y-64500000D02*
X189000000Y-65500000D01*
X189000000Y-65500000D02*
X185500000Y-69000000D01*
X185500000Y-69000000D02*
X185500000Y-73000000D01*
X185500000Y-73000000D02*
X185960000Y-73460000D01*
X185960000Y-73460000D02*
X186700000Y-73460000D01*
X182500000Y-75500000D02*
X182500000Y-71500000D01*
X182500000Y-71500000D02*
X183000000Y-71000000D01*
X182000000Y-76000000D02*
X182500000Y-75500000D01*
X190500000Y-70500000D02*
X192000000Y-69000000D01*
X186000000Y-70500000D02*
X190500000Y-70500000D01*
X181300000Y-76000000D02*
X182000000Y-76000000D01*
X186700000Y-77270000D02*
X191350000Y-77270000D01*
X191350000Y-77270000D02*
X192000000Y-76620000D01*
X191380000Y-78540000D02*
X192000000Y-79160000D01*
X186700000Y-78540000D02*
X191380000Y-78540000D01*
X181300000Y-78540000D02*
X182040000Y-78540000D01*
X182040000Y-78540000D02*
X183000000Y-79500000D01*
X183000000Y-79500000D02*
X183000000Y-81650000D01*
X73000000Y-93000000D02*
X76000000Y-90000000D01*
X59750000Y-111250000D02*
X59750000Y-106250000D01*
X59750000Y-106250000D02*
X73000000Y-93000000D01*
X180135000Y-91635000D02*
X178500000Y-90000000D01*
X178500000Y-90000000D02*
X175000000Y-90000000D01*
X180135000Y-91635000D02*
X181300000Y-91635000D01*
X76000000Y-90000000D02*
X175000000Y-90000000D01*
X175000000Y-90500000D02*
X91500000Y-90500000D01*
X75750000Y-106250000D02*
X88000000Y-94000000D01*
X75750000Y-111250000D02*
X75750000Y-106250000D01*
X180500000Y-92905000D02*
X180405000Y-92905000D01*
X180405000Y-92905000D02*
X178000000Y-90500000D01*
X180500000Y-92905000D02*
X181300000Y-92905000D01*
X175000000Y-90500000D02*
X178000000Y-90500000D01*
X91500000Y-90500000D02*
X88000000Y-94000000D01*
X175000000Y-91000000D02*
X107000000Y-91000000D01*
X91750000Y-106250000D02*
X103000000Y-95000000D01*
X91750000Y-111250000D02*
X91750000Y-106250000D01*
X180135000Y-90365000D02*
X180000000Y-90500000D01*
X177500000Y-91000000D02*
X175000000Y-91000000D01*
X180135000Y-90365000D02*
X181300000Y-90365000D01*
X107000000Y-91000000D02*
X103000000Y-95000000D01*
X175000000Y-91500000D02*
X178000000Y-91500000D01*
X122500000Y-91500000D02*
X118000000Y-96000000D01*
X107750000Y-106250000D02*
X118000000Y-96000000D01*
X107750000Y-111250000D02*
X107750000Y-106250000D01*
X175000000Y-91500000D02*
X122500000Y-91500000D01*
X178000000Y-91500000D02*
X180675000Y-94175000D01*
X180675000Y-94175000D02*
X181300000Y-94175000D01*
X182500000Y-92000000D02*
X185500000Y-92000000D01*
X138000000Y-92000000D02*
X175000000Y-92000000D01*
X177500000Y-92000000D02*
X175000000Y-92000000D01*
X123750000Y-111250000D02*
X123750000Y-106250000D01*
X123750000Y-106250000D02*
X133000000Y-97000000D01*
X133000000Y-97000000D02*
X138000000Y-92000000D01*
X185865000Y-91635000D02*
X186700000Y-91635000D01*
X185500000Y-92000000D02*
X185865000Y-91635000D01*
X183000000Y-92500000D02*
X184675000Y-94175000D01*
X186700000Y-94175000D02*
X184675000Y-94175000D01*
X153500000Y-92500000D02*
X148000000Y-98000000D01*
X178000000Y-92500000D02*
X175000000Y-92500000D01*
X139750000Y-106250000D02*
X148000000Y-98000000D01*
X139750000Y-106250000D02*
X139750000Y-111250000D01*
X175000000Y-92500000D02*
X153500000Y-92500000D01*
X169000000Y-93000000D02*
X175000000Y-93000000D01*
X184945000Y-95445000D02*
X182500000Y-93000000D01*
X178500000Y-93000000D02*
X175000000Y-93000000D01*
X184945000Y-95445000D02*
X186700000Y-95445000D01*
X163000000Y-99000000D02*
X169000000Y-93000000D01*
X155750000Y-106250000D02*
X163000000Y-99000000D01*
X155750000Y-111250000D02*
X155750000Y-106250000D01*
X171750000Y-100750000D02*
X171750000Y-111250000D01*
X186135000Y-90365000D02*
X185000000Y-91500000D01*
X179000000Y-93500000D02*
X171750000Y-100750000D01*
X186700000Y-90365000D02*
X186135000Y-90365000D01*
X187365000Y-90365000D02*
X186700000Y-90365000D01*
X181300000Y-74730000D02*
X180270000Y-74730000D01*
X179000000Y-87500000D02*
X180595000Y-89095000D01*
X179000000Y-76000000D02*
X179000000Y-87500000D01*
X180270000Y-74730000D02*
X179000000Y-76000000D01*
X180595000Y-89095000D02*
X181300000Y-89095000D01*
X181300000Y-77270000D02*
X180230000Y-77270000D01*
X180325000Y-87825000D02*
X181300000Y-87825000D01*
X179500000Y-87000000D02*
X180325000Y-87825000D01*
X179500000Y-78000000D02*
X179500000Y-87000000D01*
X180230000Y-77270000D02*
X179500000Y-78000000D01*
X181300000Y-86555000D02*
X180555000Y-86555000D01*
X180555000Y-86555000D02*
X180000000Y-86000000D01*
X180000000Y-86000000D02*
X180000000Y-80500000D01*
X180000000Y-80500000D02*
X180690000Y-79810000D01*
X180690000Y-79810000D02*
X181300000Y-79810000D01*
X190500000Y-90500000D02*
X188095000Y-92905000D01*
X186700000Y-79810000D02*
X188310000Y-79810000D01*
X190500000Y-82000000D02*
X190500000Y-90500000D01*
X190500000Y-82000000D02*
X188310000Y-79810000D01*
X188095000Y-92905000D02*
X186700000Y-92905000D01*
G36*
X194579250Y-50601565D02*
X195070316Y-50929684D01*
X195398434Y-51420747D01*
X195523000Y-52046982D01*
X195523000Y-99373000D01*
X183552606Y-99373000D01*
X180877000Y-96697394D01*
X180877000Y-95377000D01*
X181873000Y-95377000D01*
X181873000Y-96000000D01*
X181883006Y-96049410D01*
X181910197Y-96089803D01*
X182910197Y-97089803D01*
X182952211Y-97117666D01*
X183000000Y-97127000D01*
X183373000Y-97127000D01*
X183373000Y-97500000D01*
X183383006Y-97549410D01*
X183410197Y-97589803D01*
X184092272Y-98271878D01*
X184094409Y-98283237D01*
X184187927Y-98428567D01*
X184330619Y-98526064D01*
X184350480Y-98530086D01*
X184410197Y-98589803D01*
X184452211Y-98617666D01*
X184500000Y-98627000D01*
X186000000Y-98627000D01*
X186049410Y-98616994D01*
X186089803Y-98589803D01*
X186146878Y-98532728D01*
X186158237Y-98530591D01*
X186303567Y-98437073D01*
X186401064Y-98294381D01*
X186405086Y-98274520D01*
X193089803Y-91589803D01*
X193117666Y-91547789D01*
X193127000Y-91500000D01*
X193127000Y-80022100D01*
X193373029Y-79653891D01*
X193471270Y-79160000D01*
X193373029Y-78666109D01*
X193127000Y-78297900D01*
X193127000Y-77482100D01*
X193373029Y-77113891D01*
X193471270Y-76620000D01*
X193373029Y-76126109D01*
X193127000Y-75757900D01*
X193127000Y-74942100D01*
X193373029Y-74573891D01*
X193471270Y-74080000D01*
X193373029Y-73586109D01*
X193093262Y-73167408D01*
X192674561Y-72887641D01*
X192180670Y-72789400D01*
X191819330Y-72789400D01*
X191527128Y-72847522D01*
X190627000Y-71947394D01*
X190627000Y-71052606D01*
X190656795Y-71022811D01*
X190712007Y-71011829D01*
X190891737Y-70891737D01*
X191484509Y-70298965D01*
X193016000Y-70298965D01*
X193174237Y-70269191D01*
X193319567Y-70175673D01*
X193417064Y-70032981D01*
X193451365Y-69863600D01*
X193451365Y-68136400D01*
X193421591Y-67978163D01*
X193328073Y-67832833D01*
X193185381Y-67735336D01*
X193127000Y-67723513D01*
X193127000Y-67500000D01*
X193116994Y-67450590D01*
X193089803Y-67410197D01*
X188728958Y-63049352D01*
X188729206Y-62765551D01*
X188548573Y-62328385D01*
X188214394Y-61993623D01*
X187777544Y-61812227D01*
X187304531Y-61811814D01*
X186867365Y-61992447D01*
X186532603Y-62326626D01*
X186351207Y-62763476D01*
X186350794Y-63236489D01*
X186531427Y-63673655D01*
X186857989Y-64000787D01*
X186532603Y-64325606D01*
X186351207Y-64762456D01*
X186350794Y-65235469D01*
X186531427Y-65672635D01*
X186787436Y-65929090D01*
X185843526Y-66873000D01*
X184324436Y-66873000D01*
X184241478Y-66672225D01*
X184078632Y-66509095D01*
X183865755Y-66420701D01*
X183635256Y-66420500D01*
X183422225Y-66508522D01*
X183259095Y-66671368D01*
X183170701Y-66884245D01*
X183170653Y-66939635D01*
X183000000Y-66939635D01*
X182841763Y-66969409D01*
X182696433Y-67062927D01*
X182598936Y-67205619D01*
X182564635Y-67375000D01*
X182564635Y-68625000D01*
X182594409Y-68783237D01*
X182687927Y-68928567D01*
X182693007Y-68932038D01*
X182672216Y-69098370D01*
X182598936Y-69205619D01*
X182564635Y-69375000D01*
X182564635Y-69959016D01*
X182465653Y-70750873D01*
X182108263Y-71108263D01*
X181988171Y-71287993D01*
X181946000Y-71500000D01*
X181946000Y-71874394D01*
X181910197Y-71910197D01*
X181882334Y-71952211D01*
X181873000Y-72000000D01*
X181873000Y-72373000D01*
X180727000Y-72373000D01*
X180727000Y-72100000D01*
X180716994Y-72050590D01*
X180689803Y-72010197D01*
X178589803Y-69910197D01*
X178547789Y-69882334D01*
X178500000Y-69873000D01*
X50477000Y-69873000D01*
X50477000Y-63236489D01*
X183810794Y-63236489D01*
X183991427Y-63673655D01*
X184325606Y-64008417D01*
X184762456Y-64189813D01*
X185235469Y-64190226D01*
X185672635Y-64009593D01*
X186007397Y-63675414D01*
X186188793Y-63238564D01*
X186189206Y-62765551D01*
X186008573Y-62328385D01*
X185674394Y-61993623D01*
X185237544Y-61812227D01*
X184764531Y-61811814D01*
X184327365Y-61992447D01*
X183992603Y-62326626D01*
X183811207Y-62763476D01*
X183810794Y-63236489D01*
X50477000Y-63236489D01*
X50477000Y-60652918D01*
X178493202Y-60652918D01*
X178763166Y-61306280D01*
X179262610Y-61806598D01*
X179915500Y-62077701D01*
X180622438Y-62078318D01*
X181275800Y-61808354D01*
X181776118Y-61308910D01*
X182047221Y-60656020D01*
X182047223Y-60652918D01*
X190492162Y-60652918D01*
X190762126Y-61306280D01*
X191261570Y-61806598D01*
X191914460Y-62077701D01*
X192621398Y-62078318D01*
X193274760Y-61808354D01*
X193775078Y-61308910D01*
X194046181Y-60656020D01*
X194046798Y-59949082D01*
X193776834Y-59295720D01*
X193277390Y-58795402D01*
X192624500Y-58524299D01*
X191917562Y-58523682D01*
X191264200Y-58793646D01*
X190763882Y-59293090D01*
X190492779Y-59945980D01*
X190492162Y-60652918D01*
X182047223Y-60652918D01*
X182047838Y-59949082D01*
X181777874Y-59295720D01*
X181278430Y-58795402D01*
X180625540Y-58524299D01*
X179918602Y-58523682D01*
X179265240Y-58793646D01*
X178764922Y-59293090D01*
X178493819Y-59945980D01*
X178493202Y-60652918D01*
X50477000Y-60652918D01*
X50477000Y-58432112D01*
X52122710Y-58432112D01*
X52377480Y-59048703D01*
X52848816Y-59520862D01*
X53464961Y-59776708D01*
X54132112Y-59777290D01*
X54748703Y-59522520D01*
X55220862Y-59051184D01*
X55476708Y-58435039D01*
X55477290Y-57767888D01*
X55255913Y-57232112D01*
X60522710Y-57232112D01*
X60777480Y-57848703D01*
X61248816Y-58320862D01*
X61864961Y-58576708D01*
X62532112Y-58577290D01*
X62883469Y-58432112D01*
X68122710Y-58432112D01*
X68377480Y-59048703D01*
X68848816Y-59520862D01*
X69464961Y-59776708D01*
X70132112Y-59777290D01*
X70748703Y-59522520D01*
X71220862Y-59051184D01*
X71476708Y-58435039D01*
X71477290Y-57767888D01*
X71255913Y-57232112D01*
X76522710Y-57232112D01*
X76777480Y-57848703D01*
X77248816Y-58320862D01*
X77864961Y-58576708D01*
X78532112Y-58577290D01*
X78883469Y-58432112D01*
X84122710Y-58432112D01*
X84377480Y-59048703D01*
X84848816Y-59520862D01*
X85464961Y-59776708D01*
X86132112Y-59777290D01*
X86748703Y-59522520D01*
X87220862Y-59051184D01*
X87476708Y-58435039D01*
X87477290Y-57767888D01*
X87255913Y-57232112D01*
X92522710Y-57232112D01*
X92777480Y-57848703D01*
X93248816Y-58320862D01*
X93864961Y-58576708D01*
X94532112Y-58577290D01*
X94883469Y-58432112D01*
X100122710Y-58432112D01*
X100377480Y-59048703D01*
X100848816Y-59520862D01*
X101464961Y-59776708D01*
X102132112Y-59777290D01*
X102748703Y-59522520D01*
X103220862Y-59051184D01*
X103476708Y-58435039D01*
X103477290Y-57767888D01*
X103255913Y-57232112D01*
X108522710Y-57232112D01*
X108777480Y-57848703D01*
X109248816Y-58320862D01*
X109864961Y-58576708D01*
X110532112Y-58577290D01*
X110883469Y-58432112D01*
X116122710Y-58432112D01*
X116377480Y-59048703D01*
X116848816Y-59520862D01*
X117464961Y-59776708D01*
X118132112Y-59777290D01*
X118748703Y-59522520D01*
X119220862Y-59051184D01*
X119476708Y-58435039D01*
X119477290Y-57767888D01*
X119255913Y-57232112D01*
X124522710Y-57232112D01*
X124777480Y-57848703D01*
X125248816Y-58320862D01*
X125864961Y-58576708D01*
X126532112Y-58577290D01*
X126883469Y-58432112D01*
X132122710Y-58432112D01*
X132377480Y-59048703D01*
X132848816Y-59520862D01*
X133464961Y-59776708D01*
X134132112Y-59777290D01*
X134748703Y-59522520D01*
X135220862Y-59051184D01*
X135476708Y-58435039D01*
X135477290Y-57767888D01*
X135255913Y-57232112D01*
X140522710Y-57232112D01*
X140777480Y-57848703D01*
X141248816Y-58320862D01*
X141864961Y-58576708D01*
X142532112Y-58577290D01*
X142883469Y-58432112D01*
X148122710Y-58432112D01*
X148377480Y-59048703D01*
X148848816Y-59520862D01*
X149464961Y-59776708D01*
X150132112Y-59777290D01*
X150748703Y-59522520D01*
X151220862Y-59051184D01*
X151476708Y-58435039D01*
X151477290Y-57767888D01*
X151255913Y-57232112D01*
X156522710Y-57232112D01*
X156777480Y-57848703D01*
X157248816Y-58320862D01*
X157864961Y-58576708D01*
X158532112Y-58577290D01*
X158883469Y-58432112D01*
X164122710Y-58432112D01*
X164377480Y-59048703D01*
X164848816Y-59520862D01*
X165464961Y-59776708D01*
X166132112Y-59777290D01*
X166748703Y-59522520D01*
X167220862Y-59051184D01*
X167476708Y-58435039D01*
X167477290Y-57767888D01*
X167255913Y-57232112D01*
X172522710Y-57232112D01*
X172777480Y-57848703D01*
X173248816Y-58320862D01*
X173864961Y-58576708D01*
X174532112Y-58577290D01*
X175148703Y-58322520D01*
X175620862Y-57851184D01*
X175876708Y-57235039D01*
X175877290Y-56567888D01*
X175622520Y-55951297D01*
X175151184Y-55479138D01*
X174535039Y-55223292D01*
X173867888Y-55222710D01*
X173251297Y-55477480D01*
X172779138Y-55948816D01*
X172523292Y-56564961D01*
X172522710Y-57232112D01*
X167255913Y-57232112D01*
X167222520Y-57151297D01*
X166751184Y-56679138D01*
X166135039Y-56423292D01*
X165467888Y-56422710D01*
X164851297Y-56677480D01*
X164379138Y-57148816D01*
X164123292Y-57764961D01*
X164122710Y-58432112D01*
X158883469Y-58432112D01*
X159148703Y-58322520D01*
X159620862Y-57851184D01*
X159876708Y-57235039D01*
X159877290Y-56567888D01*
X159622520Y-55951297D01*
X159151184Y-55479138D01*
X158535039Y-55223292D01*
X157867888Y-55222710D01*
X157251297Y-55477480D01*
X156779138Y-55948816D01*
X156523292Y-56564961D01*
X156522710Y-57232112D01*
X151255913Y-57232112D01*
X151222520Y-57151297D01*
X150751184Y-56679138D01*
X150135039Y-56423292D01*
X149467888Y-56422710D01*
X148851297Y-56677480D01*
X148379138Y-57148816D01*
X148123292Y-57764961D01*
X148122710Y-58432112D01*
X142883469Y-58432112D01*
X143148703Y-58322520D01*
X143620862Y-57851184D01*
X143876708Y-57235039D01*
X143877290Y-56567888D01*
X143622520Y-55951297D01*
X143151184Y-55479138D01*
X142535039Y-55223292D01*
X141867888Y-55222710D01*
X141251297Y-55477480D01*
X140779138Y-55948816D01*
X140523292Y-56564961D01*
X140522710Y-57232112D01*
X135255913Y-57232112D01*
X135222520Y-57151297D01*
X134751184Y-56679138D01*
X134135039Y-56423292D01*
X133467888Y-56422710D01*
X132851297Y-56677480D01*
X132379138Y-57148816D01*
X132123292Y-57764961D01*
X132122710Y-58432112D01*
X126883469Y-58432112D01*
X127148703Y-58322520D01*
X127620862Y-57851184D01*
X127876708Y-57235039D01*
X127877290Y-56567888D01*
X127622520Y-55951297D01*
X127151184Y-55479138D01*
X126535039Y-55223292D01*
X125867888Y-55222710D01*
X125251297Y-55477480D01*
X124779138Y-55948816D01*
X124523292Y-56564961D01*
X124522710Y-57232112D01*
X119255913Y-57232112D01*
X119222520Y-57151297D01*
X118751184Y-56679138D01*
X118135039Y-56423292D01*
X117467888Y-56422710D01*
X116851297Y-56677480D01*
X116379138Y-57148816D01*
X116123292Y-57764961D01*
X116122710Y-58432112D01*
X110883469Y-58432112D01*
X111148703Y-58322520D01*
X111620862Y-57851184D01*
X111876708Y-57235039D01*
X111877290Y-56567888D01*
X111622520Y-55951297D01*
X111151184Y-55479138D01*
X110535039Y-55223292D01*
X109867888Y-55222710D01*
X109251297Y-55477480D01*
X108779138Y-55948816D01*
X108523292Y-56564961D01*
X108522710Y-57232112D01*
X103255913Y-57232112D01*
X103222520Y-57151297D01*
X102751184Y-56679138D01*
X102135039Y-56423292D01*
X101467888Y-56422710D01*
X100851297Y-56677480D01*
X100379138Y-57148816D01*
X100123292Y-57764961D01*
X100122710Y-58432112D01*
X94883469Y-58432112D01*
X95148703Y-58322520D01*
X95620862Y-57851184D01*
X95876708Y-57235039D01*
X95877290Y-56567888D01*
X95622520Y-55951297D01*
X95151184Y-55479138D01*
X94535039Y-55223292D01*
X93867888Y-55222710D01*
X93251297Y-55477480D01*
X92779138Y-55948816D01*
X92523292Y-56564961D01*
X92522710Y-57232112D01*
X87255913Y-57232112D01*
X87222520Y-57151297D01*
X86751184Y-56679138D01*
X86135039Y-56423292D01*
X85467888Y-56422710D01*
X84851297Y-56677480D01*
X84379138Y-57148816D01*
X84123292Y-57764961D01*
X84122710Y-58432112D01*
X78883469Y-58432112D01*
X79148703Y-58322520D01*
X79620862Y-57851184D01*
X79876708Y-57235039D01*
X79877290Y-56567888D01*
X79622520Y-55951297D01*
X79151184Y-55479138D01*
X78535039Y-55223292D01*
X77867888Y-55222710D01*
X77251297Y-55477480D01*
X76779138Y-55948816D01*
X76523292Y-56564961D01*
X76522710Y-57232112D01*
X71255913Y-57232112D01*
X71222520Y-57151297D01*
X70751184Y-56679138D01*
X70135039Y-56423292D01*
X69467888Y-56422710D01*
X68851297Y-56677480D01*
X68379138Y-57148816D01*
X68123292Y-57764961D01*
X68122710Y-58432112D01*
X62883469Y-58432112D01*
X63148703Y-58322520D01*
X63620862Y-57851184D01*
X63876708Y-57235039D01*
X63877290Y-56567888D01*
X63622520Y-55951297D01*
X63151184Y-55479138D01*
X62535039Y-55223292D01*
X61867888Y-55222710D01*
X61251297Y-55477480D01*
X60779138Y-55948816D01*
X60523292Y-56564961D01*
X60522710Y-57232112D01*
X55255913Y-57232112D01*
X55222520Y-57151297D01*
X54751184Y-56679138D01*
X54135039Y-56423292D01*
X53467888Y-56422710D01*
X52851297Y-56677480D01*
X52379138Y-57148816D01*
X52123292Y-57764961D01*
X52122710Y-58432112D01*
X50477000Y-58432112D01*
X50477000Y-52046982D01*
X50601565Y-51420750D01*
X50929684Y-50929684D01*
X51420747Y-50601566D01*
X52046982Y-50477000D01*
X193953018Y-50477000D01*
X194579250Y-50601565D01*
X194579250Y-50601565D01*
G37*
X194579250Y-50601565D02*
X195070316Y-50929684D01*
X195398434Y-51420747D01*
X195523000Y-52046982D01*
X195523000Y-99373000D01*
X183552606Y-99373000D01*
X180877000Y-96697394D01*
X180877000Y-95377000D01*
X181873000Y-95377000D01*
X181873000Y-96000000D01*
X181883006Y-96049410D01*
X181910197Y-96089803D01*
X182910197Y-97089803D01*
X182952211Y-97117666D01*
X183000000Y-97127000D01*
X183373000Y-97127000D01*
X183373000Y-97500000D01*
X183383006Y-97549410D01*
X183410197Y-97589803D01*
X184092272Y-98271878D01*
X184094409Y-98283237D01*
X184187927Y-98428567D01*
X184330619Y-98526064D01*
X184350480Y-98530086D01*
X184410197Y-98589803D01*
X184452211Y-98617666D01*
X184500000Y-98627000D01*
X186000000Y-98627000D01*
X186049410Y-98616994D01*
X186089803Y-98589803D01*
X186146878Y-98532728D01*
X186158237Y-98530591D01*
X186303567Y-98437073D01*
X186401064Y-98294381D01*
X186405086Y-98274520D01*
X193089803Y-91589803D01*
X193117666Y-91547789D01*
X193127000Y-91500000D01*
X193127000Y-80022100D01*
X193373029Y-79653891D01*
X193471270Y-79160000D01*
X193373029Y-78666109D01*
X193127000Y-78297900D01*
X193127000Y-77482100D01*
X193373029Y-77113891D01*
X193471270Y-76620000D01*
X193373029Y-76126109D01*
X193127000Y-75757900D01*
X193127000Y-74942100D01*
X193373029Y-74573891D01*
X193471270Y-74080000D01*
X193373029Y-73586109D01*
X193093262Y-73167408D01*
X192674561Y-72887641D01*
X192180670Y-72789400D01*
X191819330Y-72789400D01*
X191527128Y-72847522D01*
X190627000Y-71947394D01*
X190627000Y-71052606D01*
X190656795Y-71022811D01*
X190712007Y-71011829D01*
X190891737Y-70891737D01*
X191484509Y-70298965D01*
X193016000Y-70298965D01*
X193174237Y-70269191D01*
X193319567Y-70175673D01*
X193417064Y-70032981D01*
X193451365Y-69863600D01*
X193451365Y-68136400D01*
X193421591Y-67978163D01*
X193328073Y-67832833D01*
X193185381Y-67735336D01*
X193127000Y-67723513D01*
X193127000Y-67500000D01*
X193116994Y-67450590D01*
X193089803Y-67410197D01*
X188728958Y-63049352D01*
X188729206Y-62765551D01*
X188548573Y-62328385D01*
X188214394Y-61993623D01*
X187777544Y-61812227D01*
X187304531Y-61811814D01*
X186867365Y-61992447D01*
X186532603Y-62326626D01*
X186351207Y-62763476D01*
X186350794Y-63236489D01*
X186531427Y-63673655D01*
X186857989Y-64000787D01*
X186532603Y-64325606D01*
X186351207Y-64762456D01*
X186350794Y-65235469D01*
X186531427Y-65672635D01*
X186787436Y-65929090D01*
X185843526Y-66873000D01*
X184324436Y-66873000D01*
X184241478Y-66672225D01*
X184078632Y-66509095D01*
X183865755Y-66420701D01*
X183635256Y-66420500D01*
X183422225Y-66508522D01*
X183259095Y-66671368D01*
X183170701Y-66884245D01*
X183170653Y-66939635D01*
X183000000Y-66939635D01*
X182841763Y-66969409D01*
X182696433Y-67062927D01*
X182598936Y-67205619D01*
X182564635Y-67375000D01*
X182564635Y-68625000D01*
X182594409Y-68783237D01*
X182687927Y-68928567D01*
X182693007Y-68932038D01*
X182672216Y-69098370D01*
X182598936Y-69205619D01*
X182564635Y-69375000D01*
X182564635Y-69959016D01*
X182465653Y-70750873D01*
X182108263Y-71108263D01*
X181988171Y-71287993D01*
X181946000Y-71500000D01*
X181946000Y-71874394D01*
X181910197Y-71910197D01*
X181882334Y-71952211D01*
X181873000Y-72000000D01*
X181873000Y-72373000D01*
X180727000Y-72373000D01*
X180727000Y-72100000D01*
X180716994Y-72050590D01*
X180689803Y-72010197D01*
X178589803Y-69910197D01*
X178547789Y-69882334D01*
X178500000Y-69873000D01*
X50477000Y-69873000D01*
X50477000Y-63236489D01*
X183810794Y-63236489D01*
X183991427Y-63673655D01*
X184325606Y-64008417D01*
X184762456Y-64189813D01*
X185235469Y-64190226D01*
X185672635Y-64009593D01*
X186007397Y-63675414D01*
X186188793Y-63238564D01*
X186189206Y-62765551D01*
X186008573Y-62328385D01*
X185674394Y-61993623D01*
X185237544Y-61812227D01*
X184764531Y-61811814D01*
X184327365Y-61992447D01*
X183992603Y-62326626D01*
X183811207Y-62763476D01*
X183810794Y-63236489D01*
X50477000Y-63236489D01*
X50477000Y-60652918D01*
X178493202Y-60652918D01*
X178763166Y-61306280D01*
X179262610Y-61806598D01*
X179915500Y-62077701D01*
X180622438Y-62078318D01*
X181275800Y-61808354D01*
X181776118Y-61308910D01*
X182047221Y-60656020D01*
X182047223Y-60652918D01*
X190492162Y-60652918D01*
X190762126Y-61306280D01*
X191261570Y-61806598D01*
X191914460Y-62077701D01*
X192621398Y-62078318D01*
X193274760Y-61808354D01*
X193775078Y-61308910D01*
X194046181Y-60656020D01*
X194046798Y-59949082D01*
X193776834Y-59295720D01*
X193277390Y-58795402D01*
X192624500Y-58524299D01*
X191917562Y-58523682D01*
X191264200Y-58793646D01*
X190763882Y-59293090D01*
X190492779Y-59945980D01*
X190492162Y-60652918D01*
X182047223Y-60652918D01*
X182047838Y-59949082D01*
X181777874Y-59295720D01*
X181278430Y-58795402D01*
X180625540Y-58524299D01*
X179918602Y-58523682D01*
X179265240Y-58793646D01*
X178764922Y-59293090D01*
X178493819Y-59945980D01*
X178493202Y-60652918D01*
X50477000Y-60652918D01*
X50477000Y-58432112D01*
X52122710Y-58432112D01*
X52377480Y-59048703D01*
X52848816Y-59520862D01*
X53464961Y-59776708D01*
X54132112Y-59777290D01*
X54748703Y-59522520D01*
X55220862Y-59051184D01*
X55476708Y-58435039D01*
X55477290Y-57767888D01*
X55255913Y-57232112D01*
X60522710Y-57232112D01*
X60777480Y-57848703D01*
X61248816Y-58320862D01*
X61864961Y-58576708D01*
X62532112Y-58577290D01*
X62883469Y-58432112D01*
X68122710Y-58432112D01*
X68377480Y-59048703D01*
X68848816Y-59520862D01*
X69464961Y-59776708D01*
X70132112Y-59777290D01*
X70748703Y-59522520D01*
X71220862Y-59051184D01*
X71476708Y-58435039D01*
X71477290Y-57767888D01*
X71255913Y-57232112D01*
X76522710Y-57232112D01*
X76777480Y-57848703D01*
X77248816Y-58320862D01*
X77864961Y-58576708D01*
X78532112Y-58577290D01*
X78883469Y-58432112D01*
X84122710Y-58432112D01*
X84377480Y-59048703D01*
X84848816Y-59520862D01*
X85464961Y-59776708D01*
X86132112Y-59777290D01*
X86748703Y-59522520D01*
X87220862Y-59051184D01*
X87476708Y-58435039D01*
X87477290Y-57767888D01*
X87255913Y-57232112D01*
X92522710Y-57232112D01*
X92777480Y-57848703D01*
X93248816Y-58320862D01*
X93864961Y-58576708D01*
X94532112Y-58577290D01*
X94883469Y-58432112D01*
X100122710Y-58432112D01*
X100377480Y-59048703D01*
X100848816Y-59520862D01*
X101464961Y-59776708D01*
X102132112Y-59777290D01*
X102748703Y-59522520D01*
X103220862Y-59051184D01*
X103476708Y-58435039D01*
X103477290Y-57767888D01*
X103255913Y-57232112D01*
X108522710Y-57232112D01*
X108777480Y-57848703D01*
X109248816Y-58320862D01*
X109864961Y-58576708D01*
X110532112Y-58577290D01*
X110883469Y-58432112D01*
X116122710Y-58432112D01*
X116377480Y-59048703D01*
X116848816Y-59520862D01*
X117464961Y-59776708D01*
X118132112Y-59777290D01*
X118748703Y-59522520D01*
X119220862Y-59051184D01*
X119476708Y-58435039D01*
X119477290Y-57767888D01*
X119255913Y-57232112D01*
X124522710Y-57232112D01*
X124777480Y-57848703D01*
X125248816Y-58320862D01*
X125864961Y-58576708D01*
X126532112Y-58577290D01*
X126883469Y-58432112D01*
X132122710Y-58432112D01*
X132377480Y-59048703D01*
X132848816Y-59520862D01*
X133464961Y-59776708D01*
X134132112Y-59777290D01*
X134748703Y-59522520D01*
X135220862Y-59051184D01*
X135476708Y-58435039D01*
X135477290Y-57767888D01*
X135255913Y-57232112D01*
X140522710Y-57232112D01*
X140777480Y-57848703D01*
X141248816Y-58320862D01*
X141864961Y-58576708D01*
X142532112Y-58577290D01*
X142883469Y-58432112D01*
X148122710Y-58432112D01*
X148377480Y-59048703D01*
X148848816Y-59520862D01*
X149464961Y-59776708D01*
X150132112Y-59777290D01*
X150748703Y-59522520D01*
X151220862Y-59051184D01*
X151476708Y-58435039D01*
X151477290Y-57767888D01*
X151255913Y-57232112D01*
X156522710Y-57232112D01*
X156777480Y-57848703D01*
X157248816Y-58320862D01*
X157864961Y-58576708D01*
X158532112Y-58577290D01*
X158883469Y-58432112D01*
X164122710Y-58432112D01*
X164377480Y-59048703D01*
X164848816Y-59520862D01*
X165464961Y-59776708D01*
X166132112Y-59777290D01*
X166748703Y-59522520D01*
X167220862Y-59051184D01*
X167476708Y-58435039D01*
X167477290Y-57767888D01*
X167255913Y-57232112D01*
X172522710Y-57232112D01*
X172777480Y-57848703D01*
X173248816Y-58320862D01*
X173864961Y-58576708D01*
X174532112Y-58577290D01*
X175148703Y-58322520D01*
X175620862Y-57851184D01*
X175876708Y-57235039D01*
X175877290Y-56567888D01*
X175622520Y-55951297D01*
X175151184Y-55479138D01*
X174535039Y-55223292D01*
X173867888Y-55222710D01*
X173251297Y-55477480D01*
X172779138Y-55948816D01*
X172523292Y-56564961D01*
X172522710Y-57232112D01*
X167255913Y-57232112D01*
X167222520Y-57151297D01*
X166751184Y-56679138D01*
X166135039Y-56423292D01*
X165467888Y-56422710D01*
X164851297Y-56677480D01*
X164379138Y-57148816D01*
X164123292Y-57764961D01*
X164122710Y-58432112D01*
X158883469Y-58432112D01*
X159148703Y-58322520D01*
X159620862Y-57851184D01*
X159876708Y-57235039D01*
X159877290Y-56567888D01*
X159622520Y-55951297D01*
X159151184Y-55479138D01*
X158535039Y-55223292D01*
X157867888Y-55222710D01*
X157251297Y-55477480D01*
X156779138Y-55948816D01*
X156523292Y-56564961D01*
X156522710Y-57232112D01*
X151255913Y-57232112D01*
X151222520Y-57151297D01*
X150751184Y-56679138D01*
X150135039Y-56423292D01*
X149467888Y-56422710D01*
X148851297Y-56677480D01*
X148379138Y-57148816D01*
X148123292Y-57764961D01*
X148122710Y-58432112D01*
X142883469Y-58432112D01*
X143148703Y-58322520D01*
X143620862Y-57851184D01*
X143876708Y-57235039D01*
X143877290Y-56567888D01*
X143622520Y-55951297D01*
X143151184Y-55479138D01*
X142535039Y-55223292D01*
X141867888Y-55222710D01*
X141251297Y-55477480D01*
X140779138Y-55948816D01*
X140523292Y-56564961D01*
X140522710Y-57232112D01*
X135255913Y-57232112D01*
X135222520Y-57151297D01*
X134751184Y-56679138D01*
X134135039Y-56423292D01*
X133467888Y-56422710D01*
X132851297Y-56677480D01*
X132379138Y-57148816D01*
X132123292Y-57764961D01*
X132122710Y-58432112D01*
X126883469Y-58432112D01*
X127148703Y-58322520D01*
X127620862Y-57851184D01*
X127876708Y-57235039D01*
X127877290Y-56567888D01*
X127622520Y-55951297D01*
X127151184Y-55479138D01*
X126535039Y-55223292D01*
X125867888Y-55222710D01*
X125251297Y-55477480D01*
X124779138Y-55948816D01*
X124523292Y-56564961D01*
X124522710Y-57232112D01*
X119255913Y-57232112D01*
X119222520Y-57151297D01*
X118751184Y-56679138D01*
X118135039Y-56423292D01*
X117467888Y-56422710D01*
X116851297Y-56677480D01*
X116379138Y-57148816D01*
X116123292Y-57764961D01*
X116122710Y-58432112D01*
X110883469Y-58432112D01*
X111148703Y-58322520D01*
X111620862Y-57851184D01*
X111876708Y-57235039D01*
X111877290Y-56567888D01*
X111622520Y-55951297D01*
X111151184Y-55479138D01*
X110535039Y-55223292D01*
X109867888Y-55222710D01*
X109251297Y-55477480D01*
X108779138Y-55948816D01*
X108523292Y-56564961D01*
X108522710Y-57232112D01*
X103255913Y-57232112D01*
X103222520Y-57151297D01*
X102751184Y-56679138D01*
X102135039Y-56423292D01*
X101467888Y-56422710D01*
X100851297Y-56677480D01*
X100379138Y-57148816D01*
X100123292Y-57764961D01*
X100122710Y-58432112D01*
X94883469Y-58432112D01*
X95148703Y-58322520D01*
X95620862Y-57851184D01*
X95876708Y-57235039D01*
X95877290Y-56567888D01*
X95622520Y-55951297D01*
X95151184Y-55479138D01*
X94535039Y-55223292D01*
X93867888Y-55222710D01*
X93251297Y-55477480D01*
X92779138Y-55948816D01*
X92523292Y-56564961D01*
X92522710Y-57232112D01*
X87255913Y-57232112D01*
X87222520Y-57151297D01*
X86751184Y-56679138D01*
X86135039Y-56423292D01*
X85467888Y-56422710D01*
X84851297Y-56677480D01*
X84379138Y-57148816D01*
X84123292Y-57764961D01*
X84122710Y-58432112D01*
X78883469Y-58432112D01*
X79148703Y-58322520D01*
X79620862Y-57851184D01*
X79876708Y-57235039D01*
X79877290Y-56567888D01*
X79622520Y-55951297D01*
X79151184Y-55479138D01*
X78535039Y-55223292D01*
X77867888Y-55222710D01*
X77251297Y-55477480D01*
X76779138Y-55948816D01*
X76523292Y-56564961D01*
X76522710Y-57232112D01*
X71255913Y-57232112D01*
X71222520Y-57151297D01*
X70751184Y-56679138D01*
X70135039Y-56423292D01*
X69467888Y-56422710D01*
X68851297Y-56677480D01*
X68379138Y-57148816D01*
X68123292Y-57764961D01*
X68122710Y-58432112D01*
X62883469Y-58432112D01*
X63148703Y-58322520D01*
X63620862Y-57851184D01*
X63876708Y-57235039D01*
X63877290Y-56567888D01*
X63622520Y-55951297D01*
X63151184Y-55479138D01*
X62535039Y-55223292D01*
X61867888Y-55222710D01*
X61251297Y-55477480D01*
X60779138Y-55948816D01*
X60523292Y-56564961D01*
X60522710Y-57232112D01*
X55255913Y-57232112D01*
X55222520Y-57151297D01*
X54751184Y-56679138D01*
X54135039Y-56423292D01*
X53467888Y-56422710D01*
X52851297Y-56677480D01*
X52379138Y-57148816D01*
X52123292Y-57764961D01*
X52122710Y-58432112D01*
X50477000Y-58432112D01*
X50477000Y-52046982D01*
X50601565Y-51420750D01*
X50929684Y-50929684D01*
X51420747Y-50601566D01*
X52046982Y-50477000D01*
X193953018Y-50477000D01*
X194579250Y-50601565D01*
M02*
