M48
INCH,TZ
T1C0.012
T2C0.032
T3C0.039
T4C0.040
T5C0.047
T6C0.067
T7C0.091
%
G90
G05
T1
X69882Y-35827
X69882Y-36220
X70079Y-36417
X70276Y-36614
X70472Y-36811
X70866Y-35630
X71850Y-36220
X71850Y-36614
X72047Y-27953
X72047Y-36417
X72343Y-26378
X72441Y-28150
X72835Y-36024
X73228Y-27756
X73228Y-28150
X73425Y-37992
X73425Y-37992
X74016Y-34075
X74016Y-34577
X74016Y-35079
T2
X72835Y-24804
X72835Y-25591
X73835Y-24804
X73835Y-25591
T3
X73016Y-32677
X74016Y-32677
T4
X75591Y-27165
X75591Y-28165
X75591Y-29165
X75591Y-30165
X75591Y-31165
T5
X22146Y-20768
X22146Y-43799
X23524Y-43799
X28445Y-20768
X28445Y-43799
X29823Y-43799
X34744Y-20768
X34744Y-43799
X36122Y-43799
X41043Y-20768
X41043Y-43799
X42421Y-43799
X47343Y-20768
X47343Y-43799
X48720Y-43799
X53642Y-20768
X53642Y-43799
X55020Y-43799
X59941Y-20768
X59941Y-43799
X61319Y-43799
X66240Y-20768
X66240Y-43799
X67618Y-43799
T6
X21181Y-22874
X21181Y-41693
X24488Y-22402
X24488Y-42165
X27480Y-22874
X27480Y-41693
X30787Y-22402
X30787Y-42165
X33780Y-22874
X33780Y-41693
X37087Y-22402
X37087Y-42165
X40079Y-22874
X40079Y-41693
X43386Y-22402
X43386Y-42165
X46378Y-22874
X46378Y-41693
X49685Y-22402
X49685Y-42165
X52677Y-22874
X52677Y-41693
X55984Y-22402
X55984Y-42165
X58976Y-22874
X58976Y-41693
X62283Y-22402
X62283Y-42165
X65276Y-22874
X65276Y-41693
X68583Y-22402
X68583Y-42165
T7
X70973Y-23741
X75697Y-23741
T0
M30
