G04 #@! TF.FileFunction,Soldermask,Bot*
%FSLAX46Y46*%
G04 Gerber Fmt 4.6, Leading zero omitted, Abs format (unit mm)*
G04 Created by KiCad (PCBNEW 4.0.2-stable) date 2016 July 30, Saturday 23:08:24*
%MOMM*%
G01*
G04 APERTURE LIST*
%ADD10C,0.100000*%
%ADD11R,2.000000X2.000000*%
%ADD12C,2.000000*%
%ADD13C,1.524000*%
%ADD14C,2.700020*%
%ADD15R,2.032000X1.727200*%
%ADD16O,2.032000X1.727200*%
%ADD17C,2.500000*%
G04 APERTURE END LIST*
D10*
D11*
X188000000Y-83000000D03*
D12*
X185460000Y-83000000D03*
D13*
X187540000Y-65000000D03*
X185000000Y-65000000D03*
X185000000Y-63001020D03*
X187540000Y-63001020D03*
D14*
X192269480Y-60301000D03*
X180270520Y-60301000D03*
D15*
X192000000Y-69000000D03*
D16*
X192000000Y-71540000D03*
X192000000Y-74080000D03*
X192000000Y-76620000D03*
X192000000Y-79160000D03*
D17*
X62200000Y-107100000D03*
X62200000Y-56900000D03*
X53800000Y-58100000D03*
D12*
X56250000Y-52750000D03*
X59750000Y-111250000D03*
X56250000Y-111250000D03*
D17*
X53800000Y-105900000D03*
X78200000Y-107100000D03*
X78200000Y-56900000D03*
X69800000Y-58100000D03*
D12*
X72250000Y-52750000D03*
X75750000Y-111250000D03*
X72250000Y-111250000D03*
D17*
X69800000Y-105900000D03*
X94200000Y-107100000D03*
X94200000Y-56900000D03*
X85800000Y-58100000D03*
D12*
X88250000Y-52750000D03*
X91750000Y-111250000D03*
X88250000Y-111250000D03*
D17*
X85800000Y-105900000D03*
X110200000Y-107100000D03*
X110200000Y-56900000D03*
X101800000Y-58100000D03*
D12*
X104250000Y-52750000D03*
X107750000Y-111250000D03*
X104250000Y-111250000D03*
D17*
X101800000Y-105900000D03*
X126200000Y-107100000D03*
X126200000Y-56900000D03*
X117800000Y-58100000D03*
D12*
X120250000Y-52750000D03*
X123750000Y-111250000D03*
X120250000Y-111250000D03*
D17*
X117800000Y-105900000D03*
X142200000Y-107100000D03*
X142200000Y-56900000D03*
X133800000Y-58100000D03*
D12*
X136250000Y-52750000D03*
X139750000Y-111250000D03*
X136250000Y-111250000D03*
D17*
X133800000Y-105900000D03*
X158200000Y-107100000D03*
X158200000Y-56900000D03*
X149800000Y-58100000D03*
D12*
X152250000Y-52750000D03*
X155750000Y-111250000D03*
X152250000Y-111250000D03*
D17*
X149800000Y-105900000D03*
X174200000Y-107100000D03*
X174200000Y-56900000D03*
X165800000Y-58100000D03*
D12*
X168250000Y-52750000D03*
X171750000Y-111250000D03*
X168250000Y-111250000D03*
D17*
X165800000Y-105900000D03*
M02*
