<?xml version="1.0" encoding="UTF-8" standalone="no"?>
<!-- Generator: Adobe Illustrator 16.0.0, SVG Export Plug-In . SVG Version: 6.00 Build 0)  -->

<svg
   xmlns:dc="http://purl.org/dc/elements/1.1/"
   xmlns:cc="http://creativecommons.org/ns#"
   xmlns:rdf="http://www.w3.org/1999/02/22-rdf-syntax-ns#"
   xmlns:svg="http://www.w3.org/2000/svg"
   xmlns="http://www.w3.org/2000/svg"
   xmlns:sodipodi="http://sodipodi.sourceforge.net/DTD/sodipodi-0.dtd"
   xmlns:inkscape="http://www.inkscape.org/namespaces/inkscape"
   version="1.1"
   id="Laag_1"
   x="0px"
   y="0px"
   width="600mm"
   height="200mm"
   viewBox="0 0 2125.9842 708.66144"
   enable-background="new 0 0 425.2 192.76"
   xml:space="preserve"
   inkscape:version="0.91 r13725"
   sodipodi:docname="FDRbox_front_v0.1.svg"><metadata
     id="metadata65"><rdf:RDF><cc:Work
         rdf:about=""><dc:format>image/svg+xml</dc:format><dc:type
           rdf:resource="http://purl.org/dc/dcmitype/StillImage" /><dc:title /></cc:Work></rdf:RDF></metadata><defs
     id="defs63" /><sodipodi:namedview
     pagecolor="#ffffff"
     bordercolor="#666666"
     borderopacity="1"
     objecttolerance="10"
     gridtolerance="10"
     guidetolerance="10"
     inkscape:pageopacity="0"
     inkscape:pageshadow="2"
     inkscape:window-width="1920"
     inkscape:window-height="1018"
     id="namedview61"
     showgrid="false"
     units="mm"
     inkscape:document-units="mm"
     inkscape:zoom="0.58704265"
     inkscape:cx="1325.1473"
     inkscape:cy="219.6647"
     inkscape:window-x="-8"
     inkscape:window-y="-8"
     inkscape:window-maximized="1"
     inkscape:current-layer="Laag_1" /><path
     id="brd-6-6-7"
     stroke-miterlimit="10"
     d="m 534.8171,683.6501 c 0,3.90735 -3.1698,7.07364 -7.0803,7.07364 l -502.7189,0 c -3.9104,0 -7.0802,-3.16629 -7.0802,-7.07364 l 0,-212.18208 c 0,-3.9061 3.1698,-7.07241 7.0802,-7.07241 l 502.7202,0 c 3.9103,0 7.0801,3.16631 7.0801,7.07241 l 0,212.18208 z"
     inkscape:connector-curvature="0"
     style="fill:none;stroke:#ff0000;stroke-width:0.44229141;stroke-miterlimit:5.19999981;stroke-dasharray:none;stroke-opacity:1" /><rect
     id="usb-6-9-3"
     x="480.8197"
     y="464.38599"
     stroke-miterlimit="10"
     width="42.498547"
     height="57.660358"
     style="fill:none;stroke:#ff0000;stroke-width:0.42507574;stroke-miterlimit:5.19999981;stroke-dasharray:none;stroke-opacity:1" /><g
     id="fdr_x5F_1-0-7-3"
     transform="matrix(1.2489321,0,0,1.2475575,10.8563,457.32196)"
     style="fill:none;stroke:#ff0000;stroke-width:0.35433072;stroke-miterlimit:5.19999981;stroke-dasharray:none;stroke-opacity:1"><circle
       stroke-miterlimit="10"
       cx="28.346001"
       cy="17.007999"
       r="2.835"
       id="circle6-4-8-27"
       style="fill:none;stroke:#ff0000;stroke-width:0.35433072;stroke-miterlimit:5.19999981;stroke-dasharray:none;stroke-opacity:1" /><circle
       stroke-miterlimit="10"
       cx="28.347"
       cy="175.748"
       r="2.8340001"
       id="circle8-5-4-8"
       style="fill:none;stroke:#ff0000;stroke-width:0.35433072;stroke-miterlimit:5.19999981;stroke-dasharray:none;stroke-opacity:1" /><path
       stroke-miterlimit="10"
       d="m 31.181,167.245 c 0,1.565 -1.269,2.834 -2.835,2.834 l 0,0 c -1.565,0 -2.834,-1.269 -2.834,-2.834 l 0,-141.733 c 0,-1.565 1.269,-2.835 2.834,-2.835 l 0,0 c 1.566,0 2.835,1.27 2.835,2.835 l 0,141.733 z"
       id="path10-4-9-8"
       inkscape:connector-curvature="0"
       style="fill:none;stroke:#ff0000;stroke-width:0.35433072;stroke-miterlimit:5.19999981;stroke-dasharray:none;stroke-opacity:1" /></g><g
     id="fdr_x5F_2-6-8-5"
     transform="matrix(1.2489321,0,0,1.2475575,10.8563,457.32196)"
     style="fill:none;stroke:#ff0000;stroke-width:0.35433072;stroke-miterlimit:5.19999981;stroke-dasharray:none;stroke-opacity:1"><circle
       stroke-miterlimit="10"
       cx="73.700996"
       cy="17.007999"
       r="2.835"
       id="circle13-6-3-9"
       style="fill:none;stroke:#ff0000;stroke-width:0.35433072;stroke-miterlimit:5.19999981;stroke-dasharray:none;stroke-opacity:1" /><circle
       stroke-miterlimit="10"
       cx="73.700996"
       cy="175.748"
       r="2.8340001"
       id="circle15-8-4-5"
       style="fill:none;stroke:#ff0000;stroke-width:0.35433072;stroke-miterlimit:5.19999981;stroke-dasharray:none;stroke-opacity:1" /><path
       stroke-miterlimit="10"
       d="m 76.536,167.245 c 0,1.565 -1.269,2.834 -2.835,2.834 l 0,0 c -1.565,0 -2.834,-1.269 -2.834,-2.834 l 0,-141.733 c 0,-1.565 1.269,-2.835 2.834,-2.835 l 0,0 c 1.566,0 2.835,1.27 2.835,2.835 l 0,141.733 z"
       id="path17-1-9-7"
       inkscape:connector-curvature="0"
       style="fill:none;stroke:#ff0000;stroke-width:0.35433072;stroke-miterlimit:5.19999981;stroke-dasharray:none;stroke-opacity:1" /></g><g
     id="fdr_x5F_3-1-9-0"
     transform="matrix(1.2489321,0,0,1.2475575,10.8563,457.32196)"
     style="fill:none;stroke:#ff0000;stroke-width:0.35433072;stroke-miterlimit:5.19999981;stroke-dasharray:none;stroke-opacity:1"><circle
       stroke-miterlimit="10"
       cx="119.055"
       cy="17.007999"
       r="2.835"
       id="circle20-8-0-4"
       style="fill:none;stroke:#ff0000;stroke-width:0.35433072;stroke-miterlimit:5.19999981;stroke-dasharray:none;stroke-opacity:1" /><circle
       stroke-miterlimit="10"
       cx="119.056"
       cy="175.748"
       r="2.8340001"
       id="circle22-4-8-7"
       style="fill:none;stroke:#ff0000;stroke-width:0.35433072;stroke-miterlimit:5.19999981;stroke-dasharray:none;stroke-opacity:1" /><path
       stroke-miterlimit="10"
       d="m 121.89,167.245 c 0,1.565 -1.269,2.834 -2.835,2.834 l 0,0 c -1.565,0 -2.834,-1.269 -2.834,-2.834 l 0,-141.733 c 0,-1.565 1.269,-2.835 2.834,-2.835 l 0,0 c 1.566,0 2.835,1.27 2.835,2.835 l 0,141.733 z"
       id="path24-2-3-8"
       inkscape:connector-curvature="0"
       style="fill:none;stroke:#ff0000;stroke-width:0.35433072;stroke-miterlimit:5.19999981;stroke-dasharray:none;stroke-opacity:1" /></g><g
     id="fdr_x5F_4-0-7-7"
     transform="matrix(1.2489321,0,0,1.2475575,10.8563,457.32196)"
     style="fill:none;stroke:#ff0000;stroke-width:0.35433072;stroke-miterlimit:5.19999981;stroke-dasharray:none;stroke-opacity:1"><circle
       stroke-miterlimit="10"
       cx="164.41"
       cy="17.007999"
       r="2.835"
       id="circle27-3-9-0"
       style="fill:none;stroke:#ff0000;stroke-width:0.35433072;stroke-miterlimit:5.19999981;stroke-dasharray:none;stroke-opacity:1" /><circle
       stroke-miterlimit="10"
       cx="164.41"
       cy="175.748"
       r="2.8340001"
       id="circle29-6-3-2"
       style="fill:none;stroke:#ff0000;stroke-width:0.35433072;stroke-miterlimit:5.19999981;stroke-dasharray:none;stroke-opacity:1" /><path
       stroke-miterlimit="10"
       d="m 167.245,167.245 c 0,1.565 -1.269,2.834 -2.835,2.834 l 0,0 c -1.565,0 -2.834,-1.269 -2.834,-2.834 l 0,-141.733 c 0,-1.565 1.269,-2.835 2.834,-2.835 l 0,0 c 1.566,0 2.835,1.27 2.835,2.835 l 0,141.733 z"
       id="path31-2-3-8"
       inkscape:connector-curvature="0"
       style="fill:none;stroke:#ff0000;stroke-width:0.35433072;stroke-miterlimit:5.19999981;stroke-dasharray:none;stroke-opacity:1" /></g><g
     id="fdr_x5F_5-9-9-1"
     transform="matrix(1.2489321,0,0,1.2475575,10.8563,457.32196)"
     style="fill:none;stroke:#ff0000;stroke-width:0.35433072;stroke-miterlimit:5.19999981;stroke-dasharray:none;stroke-opacity:1"><circle
       stroke-miterlimit="10"
       cx="209.76401"
       cy="17.007999"
       r="2.835"
       id="circle34-9-9-5"
       style="fill:none;stroke:#ff0000;stroke-width:0.35433072;stroke-miterlimit:5.19999981;stroke-dasharray:none;stroke-opacity:1" /><circle
       stroke-miterlimit="10"
       cx="209.765"
       cy="175.748"
       r="2.8340001"
       id="circle36-7-2-0"
       style="fill:none;stroke:#ff0000;stroke-width:0.35433072;stroke-miterlimit:5.19999981;stroke-dasharray:none;stroke-opacity:1" /><path
       stroke-miterlimit="10"
       d="m 212.599,167.245 c 0,1.565 -1.269,2.834 -2.835,2.834 l 0,0 c -1.565,0 -2.834,-1.269 -2.834,-2.834 l 0,-141.733 c 0,-1.565 1.269,-2.835 2.834,-2.835 l 0,0 c 1.566,0 2.835,1.27 2.835,2.835 l 0,141.733 z"
       id="path38-6-8-1"
       inkscape:connector-curvature="0"
       style="fill:none;stroke:#ff0000;stroke-width:0.35433072;stroke-miterlimit:5.19999981;stroke-dasharray:none;stroke-opacity:1" /></g><g
     id="fdr_x5F_6-2-3-78"
     transform="matrix(1.2489321,0,0,1.2475575,10.8563,457.32196)"
     style="fill:none;stroke:#ff0000;stroke-width:0.35433072;stroke-miterlimit:5.19999981;stroke-dasharray:none;stroke-opacity:1"><circle
       stroke-miterlimit="10"
       cx="255.119"
       cy="17.007999"
       r="2.8340001"
       id="circle41-1-1-3"
       style="fill:none;stroke:#ff0000;stroke-width:0.35433072;stroke-miterlimit:5.19999981;stroke-dasharray:none;stroke-opacity:1" /><circle
       stroke-miterlimit="10"
       cx="255.119"
       cy="175.748"
       r="2.8340001"
       id="circle43-9-3-7"
       style="fill:none;stroke:#ff0000;stroke-width:0.35433072;stroke-miterlimit:5.19999981;stroke-dasharray:none;stroke-opacity:1" /><path
       stroke-miterlimit="10"
       d="m 257.953,167.245 c 0,1.565 -1.269,2.834 -2.835,2.834 l 0,0 c -1.565,0 -2.834,-1.269 -2.834,-2.834 l 0,-141.733 c 0,-1.565 1.269,-2.835 2.834,-2.835 l 0,0 c 1.566,0 2.835,1.27 2.835,2.835 l 0,141.733 z"
       id="path45-0-0-74"
       inkscape:connector-curvature="0"
       style="fill:none;stroke:#ff0000;stroke-width:0.35433072;stroke-miterlimit:5.19999981;stroke-dasharray:none;stroke-opacity:1" /></g><g
     id="fdr_x5F_7-7-9-4"
     transform="matrix(1.2489321,0,0,1.2475575,10.8563,457.32196)"
     style="fill:none;stroke:#ff0000;stroke-width:0.35433072;stroke-miterlimit:5.19999981;stroke-dasharray:none;stroke-opacity:1"><circle
       stroke-miterlimit="10"
       cx="300.47299"
       cy="17.007999"
       r="2.8340001"
       id="circle48-3-4-1"
       style="fill:none;stroke:#ff0000;stroke-width:0.35433072;stroke-miterlimit:5.19999981;stroke-dasharray:none;stroke-opacity:1" /><circle
       stroke-miterlimit="10"
       cx="300.47299"
       cy="175.748"
       r="2.8340001"
       id="circle50-2-7-21"
       style="fill:none;stroke:#ff0000;stroke-width:0.35433072;stroke-miterlimit:5.19999981;stroke-dasharray:none;stroke-opacity:1" /><path
       stroke-miterlimit="10"
       d="m 303.308,167.245 c 0,1.565 -1.269,2.834 -2.835,2.834 l 0,0 c -1.565,0 -2.834,-1.269 -2.834,-2.834 l 0,-141.733 c 0,-1.565 1.269,-2.835 2.834,-2.835 l 0,0 c 1.566,0 2.835,1.27 2.835,2.835 l 0,141.733 z"
       id="path52-4-8-01"
       inkscape:connector-curvature="0"
       style="fill:none;stroke:#ff0000;stroke-width:0.35433072;stroke-miterlimit:5.19999981;stroke-dasharray:none;stroke-opacity:1" /></g><g
     id="fdr_x5F_8-4-9-2"
     transform="matrix(1.2489321,0,0,1.2475575,10.8563,457.32196)"
     style="fill:none;stroke:#ff0000;stroke-width:0.35433072;stroke-miterlimit:5.19999981;stroke-dasharray:none;stroke-opacity:1"><circle
       stroke-miterlimit="10"
       cx="345.828"
       cy="17.007999"
       r="2.8340001"
       id="circle55-1-5-7"
       style="fill:none;stroke:#ff0000;stroke-width:0.35433072;stroke-miterlimit:5.19999981;stroke-dasharray:none;stroke-opacity:1" /><circle
       stroke-miterlimit="10"
       cx="345.828"
       cy="175.748"
       r="2.8340001"
       id="circle57-2-8-4"
       style="fill:none;stroke:#ff0000;stroke-width:0.35433072;stroke-miterlimit:5.19999981;stroke-dasharray:none;stroke-opacity:1" /><path
       stroke-miterlimit="10"
       d="m 348.662,167.245 c 0,1.565 -1.269,2.834 -2.835,2.834 l 0,0 c -1.565,0 -2.834,-1.269 -2.834,-2.834 l 0,-141.733 c 0,-1.565 1.269,-2.835 2.834,-2.835 l 0,0 c 1.566,0 2.835,1.27 2.835,2.835 l 0,141.733 z"
       id="path59-4-5-7"
       inkscape:connector-curvature="0"
       style="fill:none;stroke:#ff0000;stroke-width:0.35433072;stroke-miterlimit:5.19999981;stroke-dasharray:none;stroke-opacity:1" /></g></svg>